<svg width="92" height="92" viewBox="0 0 92 92" fill="none" xmlns="http://www.w3.org/2000/svg">
    <path
        d="M90.4923 42.1604C90.4923 40.3131 88.9947 38.8156 87.1474 38.8156H56.375C54.5277 38.8156 53.0302 37.318 53.0302 35.4707V4.69834C53.0302 2.85105 51.5327 1.35352 49.6854 1.35352H42.1038C40.2565 1.35352 38.7589 2.85105 38.7589 4.69834V35.4707C38.7589 37.318 37.2614 38.8156 35.4141 38.8156H4.6417C2.79441 38.8156 1.29688 40.3131 1.29688 42.1604V49.742C1.29688 51.5893 2.7944 53.0868 4.6417 53.0868H35.4141C37.2614 53.0868 38.7589 54.5844 38.7589 56.4317V87.2041C38.7589 89.0514 40.2565 90.5489 42.1038 90.5489H49.6854C51.5327 90.5489 53.0302 89.0514 53.0302 87.2041V56.4317C53.0302 54.5844 54.5277 53.0868 56.375 53.0868H87.1474C88.9947 53.0868 90.4923 51.5893 90.4923 49.742V42.1604Z"
        stroke-width="2.22988" stroke-miterlimit="10" stroke-linecap="round" stroke-linejoin="round" />
</svg>