<svg width="295" height="295" viewBox="0 0 295 295" fill="none" xmlns="http://www.w3.org/2000/svg">
<path d="M12.5508 106.359H282.418V272.873H12.5508V106.359Z" fill="#DBA999"/>
<path d="M12.5508 255.648H282.418V272.874H12.5508V255.648Z" fill="#D29380"/>
<path d="M35.5176 272.872V186.744C35.5176 167.717 50.9419 152.293 69.9688 152.293C88.9956 152.293 104.42 167.717 104.42 186.744V272.872H35.5176Z" fill="#FAEF93"/>
<path d="M5.08594 272.873H289.882V290.099H5.08594V272.873Z" fill="#E4E8ED"/>
<path d="M127.387 106.359H282.417V238.422H127.387V106.359Z" fill="#C4E5F9"/>
<path d="M127.387 221.195H282.417V238.421H127.387V221.195Z" fill="#A4D7F5"/>
<path d="M127.388 108.08C127.388 119.179 118.39 128.177 107.291 128.177C96.1922 128.177 87.1947 119.179 87.1947 108.08C87.1947 119.179 78.1972 128.177 67.0982 128.177C55.9991 128.177 47.0016 119.179 47.0016 108.08C47.0016 119.179 38.0041 128.177 26.9051 128.177C15.8061 128.177 6.80859 119.179 6.80859 108.08V93.7258L32.647 45.4941H262.322L288.16 93.7258V108.08C288.16 119.179 279.162 128.177 268.063 128.177C256.964 128.177 247.967 119.179 247.967 108.08C247.967 119.179 238.969 128.177 227.87 128.177C216.771 128.177 207.774 119.179 207.774 108.08C207.774 119.179 198.776 128.177 187.677 128.177C176.578 128.177 167.581 119.179 167.581 108.08C167.581 119.179 158.583 128.177 147.484 128.177C136.385 128.177 127.388 119.179 127.388 108.08Z" fill="#E46A4A"/>
<path d="M268.063 110.952C256.964 110.952 247.967 101.954 247.967 90.8555C247.967 101.954 238.969 110.952 227.87 110.952C216.771 110.952 207.774 101.954 207.774 90.8555C207.774 101.954 198.776 110.952 187.677 110.952C176.578 110.952 167.581 101.954 167.581 90.8555C167.581 101.954 158.583 110.952 147.484 110.952C136.385 110.952 127.388 101.954 127.388 90.8555C127.388 101.954 118.39 110.952 107.291 110.952C96.1922 110.952 87.1947 101.954 87.1947 90.8555C87.1947 101.954 78.1972 110.952 67.0982 110.952C55.9991 110.952 47.0016 101.954 47.0016 90.8555C47.0016 101.954 38.0041 110.952 26.9051 110.952C16.6645 110.952 8.21937 103.291 6.97281 93.3882L6.80859 93.7264V108.081C6.80859 119.18 15.8061 128.178 26.9051 128.178C38.0041 128.178 47.0016 119.18 47.0016 108.081C47.0016 119.18 55.9991 128.178 67.0982 128.178C78.1972 128.178 87.1947 119.18 87.1947 108.081C87.1947 119.18 96.1922 128.178 107.291 128.178C118.39 128.178 127.388 119.18 127.388 108.081C127.388 119.18 136.385 128.178 147.484 128.178C158.583 128.178 167.581 119.18 167.581 108.081C167.581 119.18 176.578 128.178 187.677 128.178C198.776 128.178 207.774 119.18 207.774 108.081C207.774 119.18 216.771 128.178 227.87 128.178C238.969 128.178 247.967 119.18 247.967 108.081C247.967 119.18 256.964 128.178 268.063 128.178C279.162 128.178 288.16 119.18 288.16 108.081V93.7264L287.997 93.3727C286.758 103.283 278.309 110.952 268.063 110.952Z" fill="#DB380E"/>
<path d="M96.382 45.4941L87.195 93.7258V108.08C87.195 119.179 78.1975 128.177 67.0985 128.177C55.9995 128.177 47.002 119.179 47.002 108.08V93.7258L61.9308 45.4941H96.382Z" fill="white"/>
<path d="M165.285 45.4951L167.582 93.7268V108.081C167.582 119.18 158.584 128.178 147.485 128.178C136.386 128.178 127.389 119.18 127.389 108.081V93.7268L130.834 45.4951H165.285Z" fill="white"/>
<path d="M234.188 45.4951L247.968 93.7268V108.081C247.968 119.18 238.97 128.178 227.871 128.178C216.772 128.178 207.775 119.18 207.775 108.081V93.7268L199.736 45.4951H234.188Z" fill="white"/>
<path d="M87.3259 93.1208C87.2421 92.3761 87.195 91.621 87.195 90.8545C87.195 101.954 78.1975 110.951 67.0985 110.951C56.8251 110.951 48.3582 103.24 47.1541 93.2919L47.002 93.7254V108.08C47.002 119.179 55.9995 128.177 67.0985 128.177C78.1975 128.177 87.195 119.179 87.195 108.08V93.7254L87.3259 93.1208Z" fill="#EAEAEB"/>
<path d="M167.511 92.4512C166.697 102.803 158.044 110.951 147.483 110.951C136.997 110.951 128.39 102.918 127.472 92.6705L127.387 93.7259V108.081C127.387 119.18 136.384 128.177 147.483 128.177C158.582 128.177 167.58 119.18 167.58 108.081V93.7259L167.511 92.4512Z" fill="#EAEAEB"/>
<path d="M247.816 93.2655C246.624 103.227 238.151 110.951 227.869 110.951C216.77 110.951 207.772 101.954 207.772 90.8545C207.772 91.6032 207.728 92.3416 207.648 93.0691L207.772 93.7254V108.08C207.772 119.179 216.77 128.177 227.869 128.177C238.968 128.177 247.966 119.179 247.966 108.08V93.7254L247.816 93.2655Z" fill="#EAEAEB"/>
<path d="M32.6484 5.30176H262.323V45.4948H32.6484V5.30176Z" fill="#E46A4A"/>
<path d="M32.6484 28.2695H262.323V45.4951H32.6484V28.2695Z" fill="#DB380E"/>
<path d="M35.5176 255.648H104.42V272.874H35.5176V255.648Z" fill="#F8E868"/>
<path d="M48.4336 213.729H57.0464V222.341H48.4336V213.729Z" fill="black"/>
<path d="M286.722 268.563V123.779C290.301 119.532 292.464 114.054 292.464 108.078V92.6427L280.393 70.1087L272.8 74.1757L280.965 89.4169H251.213L239.893 49.798H259.741L268.733 66.5838L276.325 62.5168L266.626 44.4104V0.992188H184.804V9.60498H258.013V41.1852H36.9511V9.60498H176.191V0.992188H28.3383V44.4104L2.4999 92.6421V108.078C2.4999 114.054 4.66286 119.532 8.24177 123.779V155.161H16.8546V130.307C19.9213 131.699 23.3216 132.481 26.9028 132.481C35.2308 132.481 42.5936 128.285 46.9994 121.899C51.4051 128.285 58.7679 132.481 67.0959 132.481C75.4239 132.481 82.7867 128.285 87.1924 121.899C91.5981 128.285 98.9609 132.481 107.289 132.481C113.307 132.481 118.82 130.286 123.079 126.662V268.563H108.724V186.742C108.724 165.37 91.338 147.984 69.9668 147.984C48.5956 147.984 31.2092 165.37 31.2092 186.742V268.563H16.8546V163.774H8.24177V268.563H0.777344V294.401H45.851V285.789H9.39014V277.176H182.507V268.563H131.692V242.725H278.109V251.337H247.965V259.95H278.109V268.563H191.12V277.176H285.574V285.789H54.4638V294.401H294.187V268.563H286.722ZM100.112 234.112H87.1924V242.725H100.112V251.337H75.7087V259.95H100.112V268.563H39.822V186.742C39.822 170.119 53.3447 156.597 69.9668 156.597C86.5889 156.597 100.112 170.119 100.112 186.742V234.112ZM42.693 108.078C42.693 116.785 35.6098 123.868 26.9028 123.868C18.1959 123.868 11.1127 116.785 11.1127 108.078V98.0297H42.693V108.078ZM43.8241 89.4169H13.9986L35.2228 49.798H56.087L43.8241 89.4169ZM82.886 108.078C82.886 116.785 75.8028 123.868 67.0959 123.868C58.3889 123.868 51.3058 116.785 51.3058 108.078V98.0297H82.886V108.078ZM83.629 89.4169H52.84L65.1029 49.798H91.175L83.629 89.4169ZM123.079 108.078C123.079 116.785 115.996 123.868 107.289 123.868C98.582 123.868 91.4988 116.785 91.4988 108.078V98.0297H123.079V108.078ZM123.376 89.4169H92.3968L99.9434 49.798H126.206L123.376 89.4169ZM230.936 49.798L242.255 89.4169H211.419L204.816 49.798H230.936ZM196.085 49.798L202.688 89.4169H171.685L169.798 49.798H196.085ZM134.84 49.798H161.175L163.062 89.4169H132.011L134.84 49.798ZM131.692 98.0297H163.272V108.078C163.272 116.785 156.189 123.868 147.482 123.868C138.775 123.868 131.692 116.785 131.692 108.078V98.0297ZM174.756 234.112H131.692V202.532H174.756V234.112ZM174.756 193.919H131.692V162.339H174.756V193.919ZM174.756 153.726H131.692V126.662C135.951 130.287 141.464 132.481 147.482 132.481C155.81 132.481 163.173 128.285 167.579 121.899C169.475 124.648 171.921 126.989 174.756 128.766V153.726ZM171.885 108.078V98.0297H203.465V108.078C203.465 116.785 196.382 123.868 187.675 123.868C178.968 123.868 171.885 116.785 171.885 108.078ZM226.433 234.112H183.369V202.532H226.433V234.112ZM226.433 193.919H183.369V162.339H226.433V193.919ZM226.433 153.726H183.369V132.093C184.768 132.343 186.205 132.481 187.675 132.481C196.003 132.481 203.366 128.285 207.772 121.899C211.922 127.916 218.698 131.984 226.433 132.435V153.726ZM212.078 108.078V98.0297H243.658V108.078C243.658 116.785 236.575 123.868 227.868 123.868C219.161 123.868 212.078 116.785 212.078 108.078ZM278.109 234.112H235.045V202.532H278.109V234.112ZM278.109 193.919H235.045V162.339H278.109V193.919ZM278.109 153.726H235.045V131.402C240.347 129.767 244.88 126.37 247.965 121.899C252.37 128.285 259.733 132.481 268.061 132.481C271.642 132.481 275.043 131.699 278.109 130.307V153.726ZM283.851 108.078C283.851 116.785 276.768 123.868 268.061 123.868C259.354 123.868 252.271 116.785 252.271 108.078V98.0297H283.851V108.078Z" fill="black"/>
<path d="M58.4844 251.338H67.0972V259.951H58.4844V251.338Z" fill="white"/>
<path d="M230.742 251.338H239.355V259.951H230.742V251.338Z" fill="white"/>
<path d="M169.015 29.7017H160.402V21.0889H169.015V29.7017ZM151.79 29.7017H143.177V21.0889H151.79V29.7017ZM134.564 29.7017H125.951V21.0889H134.564V29.7017Z" fill="white"/>
</svg>
