<svg width="742" height="355" viewBox="0 0 742 355" fill="none" xmlns="http://www.w3.org/2000/svg">
<g filter="url(#filter0_d)">
<rect x="225.297" y="212.895" width="512.481" height="137.22" fill="#F7F7F7"/>
</g>
<path d="M452.615 236.679C453.148 235.038 455.469 235.038 456.003 236.679L459.526 247.523C459.765 248.257 460.448 248.754 461.22 248.754H472.623C474.348 248.754 475.065 250.962 473.67 251.976L464.445 258.678C463.82 259.132 463.559 259.936 463.798 260.669L467.321 271.514C467.854 273.155 465.976 274.519 464.581 273.505L455.356 266.803C454.731 266.349 453.886 266.349 453.262 266.803L444.037 273.505C442.641 274.519 440.763 273.155 441.296 271.514L444.82 260.669C445.058 259.936 444.797 259.132 444.173 258.678L434.948 251.976C433.552 250.962 434.27 248.754 435.995 248.754H447.398C448.169 248.754 448.853 248.257 449.091 247.523L452.615 236.679Z" fill="#FAA51E" fill-opacity="0.25"/>
<path d="M513.34 236.679C513.873 235.038 516.194 235.038 516.727 236.679L520.251 247.523C520.489 248.257 521.173 248.754 521.945 248.754H533.348C535.073 248.754 535.79 250.962 534.394 251.976L525.169 258.678C524.545 259.132 524.284 259.936 524.522 260.669L528.046 271.514C528.579 273.155 526.701 274.519 525.305 273.505L516.08 266.803C515.456 266.349 514.611 266.349 513.987 266.803L504.761 273.505C503.366 274.519 501.488 273.155 502.021 271.514L505.545 260.669C505.783 259.936 505.522 259.132 504.898 258.678L495.673 251.976C494.277 250.962 494.994 248.754 496.719 248.754H508.122C508.894 248.754 509.578 248.257 509.816 247.523L513.34 236.679Z" fill="#FAA51E" fill-opacity="0.25"/>
<path d="M574.064 236.679C574.597 235.038 576.919 235.038 577.452 236.679L580.975 247.523C581.214 248.257 581.898 248.754 582.669 248.754H594.072C595.797 248.754 596.515 250.962 595.119 251.976L585.894 258.678C585.27 259.132 585.008 259.936 585.247 260.669L588.771 271.514C589.304 273.155 587.426 274.519 586.03 273.505L576.805 266.803C576.181 266.349 575.335 266.349 574.711 266.803L565.486 273.505C564.09 274.519 562.212 273.155 562.746 271.514L566.269 260.669C566.508 259.936 566.246 259.132 565.622 258.678L556.397 251.976C555.001 250.962 555.719 248.754 557.444 248.754H568.847C569.618 248.754 570.302 248.257 570.541 247.523L574.064 236.679Z" fill="#FAA51E" fill-opacity="0.25"/>
<path d="M634.789 236.679C635.322 235.038 637.643 235.038 638.176 236.679L641.7 247.523C641.939 248.257 642.622 248.754 643.394 248.754H654.797C656.522 248.754 657.239 250.962 655.844 251.976L646.618 258.678C645.994 259.132 645.733 259.936 645.971 260.669L649.495 271.514C650.028 273.155 648.15 274.519 646.755 273.505L637.529 266.803C636.905 266.349 636.06 266.349 635.436 266.803L626.211 273.505C624.815 274.519 622.937 273.155 623.47 271.514L626.994 260.669C627.232 259.936 626.971 259.132 626.347 258.678L617.122 251.976C615.726 250.962 616.443 248.754 618.169 248.754H629.571C630.343 248.754 631.027 248.257 631.265 247.523L634.789 236.679Z" fill="#FAA51E" fill-opacity="0.25"/>
<path d="M695.515 236.679C696.049 235.038 698.37 235.038 698.903 236.679L702.427 247.523C702.665 248.257 703.349 248.754 704.12 248.754H715.523C717.249 248.754 717.966 250.962 716.57 251.976L707.345 258.678C706.721 259.132 706.46 259.936 706.698 260.669L710.222 271.514C710.755 273.155 708.877 274.519 707.481 273.505L698.256 266.803C697.632 266.349 696.787 266.349 696.162 266.803L686.937 273.505C685.542 274.519 683.664 273.155 684.197 271.514L687.72 260.669C687.959 259.936 687.698 259.132 687.073 258.678L677.848 251.976C676.453 250.962 677.17 248.754 678.895 248.754H690.298C691.07 248.754 691.753 248.257 691.992 247.523L695.515 236.679Z" fill="#FAA51E" fill-opacity="0.25"/>
<circle cx="257.658" cy="256.484" r="19.3945" fill="#C4C4C4"/>
<rect x="287.939" y="248.895" width="111.478" height="15.1823" rx="7.59117" fill="#141414" fill-opacity="0.25"/>
<rect x="238.264" y="290.784" width="483.965" height="15.1823" rx="7.59117" fill="#E6E6E6" fill-opacity="0.25"/>
<rect x="238.264" y="320.872" width="483.965" height="15.1823" rx="7.59117" fill="#E6E6E6" fill-opacity="0.25"/>
<g filter="url(#filter1_d)">
<rect x="106.057" y="111.676" width="512.481" height="137.22" fill="#F7F7F7"/>
</g>
<path d="M333.375 135.461C333.908 133.82 336.229 133.82 336.762 135.461L340.286 146.306C340.524 147.039 341.208 147.536 341.98 147.536H353.383C355.108 147.536 355.825 149.744 354.429 150.758L345.204 157.46C344.58 157.914 344.319 158.718 344.557 159.452L348.081 170.296C348.614 171.937 346.736 173.302 345.341 172.287L336.115 165.585C335.491 165.132 334.646 165.132 334.022 165.585L324.797 172.287C323.401 173.302 321.523 171.937 322.056 170.296L325.58 159.452C325.818 158.718 325.557 157.914 324.933 157.46L315.708 150.758C314.312 149.744 315.029 147.536 316.754 147.536H328.157C328.929 147.536 329.613 147.039 329.851 146.306L333.375 135.461Z" fill="#FAA51E" fill-opacity="0.5"/>
<path d="M394.099 135.461C394.633 133.82 396.954 133.82 397.487 135.461L401.011 146.306C401.249 147.039 401.933 147.536 402.704 147.536H414.107C415.833 147.536 416.55 149.744 415.154 150.758L405.929 157.46C405.305 157.914 405.044 158.718 405.282 159.452L408.806 170.296C409.339 171.937 407.461 173.302 406.065 172.287L396.84 165.585C396.216 165.132 395.371 165.132 394.746 165.585L385.521 172.287C384.126 173.302 382.248 171.937 382.781 170.296L386.304 159.452C386.543 158.718 386.282 157.914 385.657 157.46L376.432 150.758C375.037 149.744 375.754 147.536 377.479 147.536H388.882C389.654 147.536 390.337 147.039 390.576 146.306L394.099 135.461Z" fill="#FAA51E" fill-opacity="0.5"/>
<path d="M454.824 135.461C455.357 133.82 457.678 133.82 458.212 135.461L461.735 146.306C461.974 147.039 462.657 147.536 463.429 147.536H474.832C476.557 147.536 477.274 149.744 475.879 150.758L466.654 157.46C466.029 157.914 465.768 158.718 466.007 159.452L469.53 170.296C470.063 171.937 468.185 173.302 466.79 172.287L457.565 165.585C456.94 165.132 456.095 165.132 455.471 165.585L446.246 172.287C444.85 173.302 442.972 171.937 443.505 170.296L447.029 159.452C447.267 158.718 447.006 157.914 446.382 157.46L437.157 150.758C435.761 149.744 436.478 147.536 438.204 147.536H449.607C450.378 147.536 451.062 147.039 451.3 146.306L454.824 135.461Z" fill="#FAA51E" fill-opacity="0.5"/>
<path d="M515.551 135.461C516.084 133.82 518.405 133.82 518.938 135.461L522.462 146.306C522.7 147.039 523.384 147.536 524.156 147.536H535.558C537.284 147.536 538.001 149.744 536.605 150.758L527.38 157.46C526.756 157.914 526.495 158.718 526.733 159.452L530.257 170.296C530.79 171.937 528.912 173.302 527.516 172.287L518.291 165.585C517.667 165.132 516.822 165.132 516.198 165.585L506.972 172.287C505.577 173.302 503.699 171.937 504.232 170.296L507.756 159.452C507.994 158.718 507.733 157.914 507.109 157.46L497.883 150.758C496.488 149.744 497.205 147.536 498.93 147.536H510.333C511.105 147.536 511.789 147.039 512.027 146.306L515.551 135.461Z" fill="#FAA51E" fill-opacity="0.5"/>
<path d="M576.275 135.461C576.808 133.82 579.13 133.82 579.663 135.461L583.186 146.306C583.425 147.039 584.109 147.536 584.88 147.536H596.283C598.008 147.536 598.726 149.744 597.33 150.758L588.105 157.46C587.481 157.914 587.219 158.718 587.458 159.452L590.981 170.296C591.515 171.937 589.637 173.302 588.241 172.287L579.016 165.585C578.392 165.132 577.546 165.132 576.922 165.585L567.697 172.287C566.301 173.302 564.423 171.937 564.956 170.296L568.48 159.452C568.719 158.718 568.457 157.914 567.833 157.46L558.608 150.758C557.212 149.744 557.93 147.536 559.655 147.536H571.058C571.829 147.536 572.513 147.039 572.752 146.306L576.275 135.461Z" fill="#FAA51E" fill-opacity="0.5"/>
<circle cx="138.418" cy="155.267" r="19.3945" fill="#C4C4C4"/>
<rect x="168.701" y="147.676" width="111.478" height="15.1823" rx="7.59117" fill="#141414" fill-opacity="0.5"/>
<rect x="119.023" y="189.565" width="483.965" height="15.1823" rx="7.59117" fill="#E6E6E6" fill-opacity="0.5"/>
<rect x="119.023" y="219.654" width="483.965" height="15.1823" rx="7.59117" fill="#E6E6E6" fill-opacity="0.5"/>
<g filter="url(#filter2_d)">
<rect x="4.14844" y="3.07812" width="512.481" height="137.22" fill="#F7F7F7"/>
</g>
<path d="M231.467 26.8632C232 25.2225 234.321 25.2225 234.854 26.8632L238.378 37.708C238.616 38.4418 239.3 38.9386 240.072 38.9386H251.474C253.2 38.9386 253.917 41.1463 252.521 42.1603L243.296 48.8628C242.672 49.3163 242.411 50.1201 242.649 50.8539L246.173 61.6987C246.706 63.3395 244.828 64.7039 243.432 63.6898L234.207 56.9874C233.583 56.5339 232.738 56.5339 232.114 56.9874L222.888 63.6898C221.493 64.7039 219.615 63.3395 220.148 61.6987L223.672 50.8539C223.91 50.1201 223.649 49.3163 223.025 48.8628L213.799 42.1603C212.404 41.1463 213.121 38.9386 214.846 38.9386H226.249C227.021 38.9386 227.705 38.4418 227.943 37.708L231.467 26.8632Z" fill="#FAA51E"/>
<path d="M292.191 26.8632C292.724 25.2225 295.046 25.2225 295.579 26.8632L299.102 37.708C299.341 38.4418 300.025 38.9386 300.796 38.9386H312.199C313.924 38.9386 314.642 41.1463 313.246 42.1603L304.021 48.8628C303.397 49.3163 303.135 50.1201 303.374 50.8539L306.897 61.6987C307.431 63.3395 305.553 64.7039 304.157 63.6898L294.932 56.9874C294.308 56.5339 293.462 56.5339 292.838 56.9874L283.613 63.6898C282.217 64.7039 280.339 63.3395 280.873 61.6987L284.396 50.8539C284.635 50.1201 284.373 49.3163 283.749 48.8628L274.524 42.1603C273.128 41.1463 273.846 38.9386 275.571 38.9386H286.974C287.745 38.9386 288.429 38.4418 288.668 37.708L292.191 26.8632Z" fill="#FAA51E"/>
<path d="M352.916 26.8632C353.449 25.2225 355.77 25.2225 356.303 26.8632L359.827 37.708C360.065 38.4418 360.749 38.9386 361.521 38.9386H372.924C374.649 38.9386 375.366 41.1463 373.97 42.1603L364.745 48.8628C364.121 49.3163 363.86 50.1201 364.098 50.8539L367.622 61.6987C368.155 63.3395 366.277 64.7039 364.882 63.6898L355.656 56.9874C355.032 56.5339 354.187 56.5339 353.563 56.9874L344.338 63.6898C342.942 64.7039 341.064 63.3395 341.597 61.6987L345.121 50.8539C345.359 50.1201 345.098 49.3163 344.474 48.8628L335.249 42.1603C333.853 41.1463 334.57 38.9386 336.296 38.9386H347.698C348.47 38.9386 349.154 38.4418 349.392 37.708L352.916 26.8632Z" fill="#FAA51E"/>
<path d="M413.64 26.8632C414.174 25.2225 416.495 25.2225 417.028 26.8632L420.552 37.708C420.79 38.4418 421.474 38.9386 422.245 38.9386H433.648C435.374 38.9386 436.091 41.1463 434.695 42.1603L425.47 48.8628C424.846 49.3163 424.585 50.1201 424.823 50.8539L428.347 61.6987C428.88 63.3395 427.002 64.7039 425.606 63.6898L416.381 56.9874C415.757 56.5339 414.912 56.5339 414.287 56.9874L405.062 63.6898C403.667 64.7039 401.789 63.3395 402.322 61.6987L405.845 50.8539C406.084 50.1201 405.823 49.3163 405.198 48.8628L395.973 42.1603C394.578 41.1463 395.295 38.9386 397.02 38.9386H408.423C409.195 38.9386 409.878 38.4418 410.117 37.708L413.64 26.8632Z" fill="#FAA51E"/>
<path d="M474.365 26.8632C474.898 25.2225 477.219 25.2225 477.753 26.8632L481.276 37.708C481.515 38.4418 482.198 38.9386 482.97 38.9386H494.373C496.098 38.9386 496.815 41.1463 495.42 42.1603L486.195 48.8628C485.57 49.3163 485.309 50.1201 485.548 50.8539L489.071 61.6987C489.604 63.3395 487.726 64.7039 486.331 63.6898L477.106 56.9874C476.481 56.5339 475.636 56.5339 475.012 56.9874L465.787 63.6898C464.391 64.7039 462.513 63.3395 463.046 61.6987L466.57 50.8539C466.808 50.1201 466.547 49.3163 465.923 48.8628L456.698 42.1603C455.302 41.1463 456.02 38.9386 457.745 38.9386H469.148C469.919 38.9386 470.603 38.4418 470.841 37.708L474.365 26.8632Z" fill="#FAA51E"/>
<circle cx="36.5078" cy="46.668" r="19.3945" fill="#C4C4C4"/>
<rect x="66.791" y="39.0781" width="111.478" height="15.1823" rx="7.59117" fill="#141414"/>
<rect x="17.1133" y="80.9678" width="483.965" height="15.1823" rx="7.59117" fill="#E6E6E6"/>
<rect x="17.1133" y="111.056" width="483.965" height="15.1823" rx="7.59117" fill="#E6E6E6"/>
<defs>
<filter id="filter0_d" x="221.735" y="210.223" width="519.604" height="144.343" filterUnits="userSpaceOnUse" color-interpolation-filters="sRGB">
<feFlood flood-opacity="0" result="BackgroundImageFix"/>
<feColorMatrix in="SourceAlpha" type="matrix" values="0 0 0 0 0 0 0 0 0 0 0 0 0 0 0 0 0 0 127 0"/>
<feOffset dy="0.890461"/>
<feGaussianBlur stdDeviation="1.78092"/>
<feColorMatrix type="matrix" values="0 0 0 0 0 0 0 0 0 0 0 0 0 0 0 0 0 0 0.12 0"/>
<feBlend mode="normal" in2="BackgroundImageFix" result="effect1_dropShadow"/>
<feBlend mode="normal" in="SourceGraphic" in2="effect1_dropShadow" result="shape"/>
</filter>
<filter id="filter1_d" x="102.495" y="109.004" width="519.604" height="144.343" filterUnits="userSpaceOnUse" color-interpolation-filters="sRGB">
<feFlood flood-opacity="0" result="BackgroundImageFix"/>
<feColorMatrix in="SourceAlpha" type="matrix" values="0 0 0 0 0 0 0 0 0 0 0 0 0 0 0 0 0 0 127 0"/>
<feOffset dy="0.890461"/>
<feGaussianBlur stdDeviation="1.78092"/>
<feColorMatrix type="matrix" values="0 0 0 0 0 0 0 0 0 0 0 0 0 0 0 0 0 0 0.12 0"/>
<feBlend mode="normal" in2="BackgroundImageFix" result="effect1_dropShadow"/>
<feBlend mode="normal" in="SourceGraphic" in2="effect1_dropShadow" result="shape"/>
</filter>
<filter id="filter2_d" x="0.586593" y="0.406741" width="519.604" height="144.343" filterUnits="userSpaceOnUse" color-interpolation-filters="sRGB">
<feFlood flood-opacity="0" result="BackgroundImageFix"/>
<feColorMatrix in="SourceAlpha" type="matrix" values="0 0 0 0 0 0 0 0 0 0 0 0 0 0 0 0 0 0 127 0"/>
<feOffset dy="0.890461"/>
<feGaussianBlur stdDeviation="1.78092"/>
<feColorMatrix type="matrix" values="0 0 0 0 0 0 0 0 0 0 0 0 0 0 0 0 0 0 0.12 0"/>
<feBlend mode="normal" in2="BackgroundImageFix" result="effect1_dropShadow"/>
<feBlend mode="normal" in="SourceGraphic" in2="effect1_dropShadow" result="shape"/>
</filter>
</defs>
</svg>
