<svg width="134" height="134" viewBox="0 0 134 134" fill="none" xmlns="http://www.w3.org/2000/svg">
<circle cx="66.8469" cy="66.8918" r="66.4601" fill="#F9EDCC"/>
<g clip-path="url(#clip0)">
<path d="M87.1715 107.265C83.8788 107.265 79.5044 104.618 74.3177 99.4476C68.1653 93.315 61.5237 84.3023 55.616 74.07C49.7083 63.8376 45.2242 53.5794 42.9892 45.185C40.5646 36.0781 41.0853 30.2239 44.4949 28.2554L45.97 30.8103C44.3966 31.7188 43.5362 35.7726 45.84 44.4259C48.0101 52.5767 52.3892 62.5806 58.1709 72.5946C63.9527 82.6087 70.4266 91.4032 76.4005 97.3579C82.7428 103.68 86.684 104.962 88.2568 104.053L89.732 106.608C88.9721 107.047 88.116 107.265 87.1715 107.265Z" fill="#FAA51E"/>
<path d="M44.4949 106.609C41.0853 104.64 40.5646 98.7863 42.9892 89.6794C45.2242 81.285 49.7083 71.0268 55.616 60.7944C61.5237 50.5621 68.1655 41.5494 74.3177 35.4168C80.9922 28.7634 86.3226 26.2874 89.732 28.256L88.2568 30.8109C86.6832 29.9024 82.7425 31.1845 76.4005 37.5063C70.4266 43.461 63.9527 52.2555 58.1709 62.2696C52.3892 72.2836 48.0101 82.2876 45.84 90.4384C43.5362 99.0918 44.3966 103.146 45.97 104.054L44.4949 106.609Z" fill="#FAA51E"/>
<path d="M112.353 67.4329H109.403C109.403 65.6161 106.322 62.8441 97.6763 60.5125C89.5325 58.3164 78.6791 57.107 67.116 57.107C55.5529 57.107 44.6994 58.3164 36.5557 60.5125C27.9098 62.8439 24.8292 65.6161 24.8292 67.4329H21.8789C21.8789 63.4957 26.6884 60.1177 35.7877 57.664C44.1747 55.4023 55.3006 54.1567 67.116 54.1567C78.9314 54.1567 90.0573 55.4023 98.4445 57.664C107.544 60.1177 112.353 63.4957 112.353 67.4329Z" fill="#FAA51E"/>
<path d="M66.6246 99.8849C84.5477 99.8849 99.0773 85.3554 99.0773 67.4322C99.0773 49.5091 84.5477 34.9795 66.6246 34.9795C48.7015 34.9795 34.1719 49.5091 34.1719 67.4322C34.1719 85.3554 48.7015 99.8849 66.6246 99.8849Z" fill="#46508C"/>
<path d="M66.6237 37.9303C74.504 37.9303 81.9128 40.9991 87.4851 46.5714C93.0573 52.1437 96.1262 59.5525 96.1262 67.4328C96.1262 75.3131 93.0573 82.7219 87.4851 88.2941C81.9128 93.8664 74.5042 96.9352 66.6237 96.9352C58.7432 96.9352 51.3346 93.8664 45.7623 88.2941C40.19 82.7219 37.1212 75.3132 37.1212 67.4328C37.1212 59.5523 40.19 52.1437 45.7623 46.5714C51.3346 40.9991 58.7434 37.9303 66.6237 37.9303ZM66.6237 32.0298C47.0711 32.0298 31.2207 47.8802 31.2207 67.4328C31.2207 86.9853 47.0711 102.836 66.6237 102.836C86.1763 102.836 102.027 86.9853 102.027 67.4328C102.027 47.8802 86.1763 32.0298 66.6237 32.0298Z" fill="#5F78BE"/>
<path d="M66.6223 37.9303C66.8196 37.9303 67.3656 38.1456 68.1607 38.9527C69.0021 39.8068 70.2827 41.4916 71.6064 44.6685C74.0638 50.566 75.4731 58.8632 75.4731 67.4328C75.4731 76.0023 74.0638 84.2995 71.6064 90.1971C70.2827 93.3739 69.0021 95.0587 68.1607 95.9128C67.3656 96.72 66.8196 96.9352 66.6223 96.9352C66.425 96.9352 65.8791 96.7199 65.084 95.9128C64.2426 95.0587 62.962 93.3739 61.6383 90.1971C59.1809 84.2995 57.7716 76.0023 57.7716 67.4328C57.7716 58.8632 59.1809 50.566 61.6383 44.6685C62.962 41.4916 64.2426 39.8068 65.084 38.9527C65.8791 38.1456 66.4252 37.9303 66.6223 37.9303ZM66.6223 32.0298C58.4754 32.0298 51.8711 47.8802 51.8711 67.4328C51.8711 86.9853 58.4754 102.836 66.6223 102.836C74.7693 102.836 81.3736 86.9853 81.3736 67.4328C81.3736 47.8802 74.7693 32.0298 66.6223 32.0298Z" fill="#5F78BE"/>
<path d="M37.1211 52.6816H96.6178V58.5821H37.1211V52.6816Z" fill="#5F78BE"/>
<path d="M37.1211 76.2832H96.6178V82.1837H37.1211V76.2832Z" fill="#5F78BE"/>
<path d="M67.116 80.7082C55.3006 80.7082 44.1747 79.4627 35.7875 77.201C26.6884 74.7473 21.8789 71.3692 21.8789 67.4321H24.8292C24.8292 69.2489 27.9098 72.0209 36.5557 74.3525C44.6994 76.5486 55.5529 77.758 67.116 77.758C78.6791 77.758 89.5325 76.5486 97.6763 74.3525C106.322 72.0211 109.403 69.2489 109.403 67.4321H112.353C112.353 71.3692 107.544 74.7473 98.4443 77.201C90.0573 79.4627 78.9314 80.7082 67.116 80.7082Z" fill="#FAA51E"/>
<path d="M89.7332 106.609L88.258 104.054C89.8314 103.146 90.6918 99.0921 88.388 90.4388C86.2179 82.288 81.8388 72.2841 76.0571 62.27C70.2754 52.256 63.8014 43.4615 57.8275 37.5068C51.4852 31.1847 47.5448 29.9031 45.9712 30.8114L44.4961 28.2564C47.9057 26.2879 53.2358 28.7641 59.9104 35.4172C66.0628 41.5499 72.7043 50.5625 78.612 60.7949C84.5197 71.0273 89.0039 81.2855 91.2389 89.6799C93.6634 98.7865 93.1427 104.641 89.7332 106.609Z" fill="#FAA51E"/>
<path d="M47.0565 107.266C46.1117 107.266 45.2562 107.048 44.4961 106.609L45.9712 104.054C47.5446 104.962 51.4856 103.68 57.8275 97.3584C63.8014 91.4037 70.2754 82.6092 76.0571 72.5951C81.8388 62.5811 86.2179 52.5771 88.388 44.4263C90.6918 35.7729 89.8314 31.7191 88.258 30.8108L89.7332 28.2559C93.1427 30.2244 93.6634 36.0786 91.2389 45.1855C89.0039 53.5799 84.5197 63.8381 78.612 74.0704C72.7043 84.3028 66.0626 93.3154 59.9104 99.4481C54.724 104.618 50.3492 107.265 47.0565 107.266Z" fill="#FAA51E"/>
<path d="M78.4236 89.5587C87.3852 89.5587 94.65 82.2939 94.65 73.3323C94.65 64.3707 87.3852 57.106 78.4236 57.106C69.4621 57.106 62.1973 64.3707 62.1973 73.3323C62.1973 82.2939 69.4621 89.5587 78.4236 89.5587Z" fill="#FAA51E"/>
<path d="M78.4241 58.5816C86.558 58.5816 93.1754 65.199 93.1754 73.3328C93.1754 81.4667 86.558 88.0841 78.4241 88.0841C70.2903 88.0841 63.6729 81.4667 63.6729 73.3328C63.6729 65.199 70.2903 58.5816 78.4241 58.5816ZM78.4241 55.6313C68.6479 55.6313 60.7227 63.5566 60.7227 73.3328C60.7227 83.109 68.6479 91.0343 78.4241 91.0343C88.2003 91.0343 96.1256 83.109 96.1256 73.3328C96.1256 63.5566 88.2005 55.6313 78.4241 55.6313Z" fill="#F06423"/>
<path fill-rule="evenodd" clip-rule="evenodd" d="M76.2402 66.6689C75.0775 66.6689 73.9624 67.1375 73.1402 67.9715C72.318 68.8056 71.8561 69.9368 71.8561 71.1163C71.8561 72.2958 72.318 73.427 73.1402 74.2611C73.9624 75.0951 75.0775 75.5637 76.2402 75.5637C77.403 75.5637 78.5181 75.0951 79.3403 74.2611C80.1625 73.427 80.6244 72.2958 80.6244 71.1163C80.6244 69.9368 80.1625 68.8056 79.3403 67.9715C78.5181 67.1375 77.403 66.6689 76.2402 66.6689ZM69.6641 71.1163C69.6639 70.0664 69.9081 69.0313 70.3767 68.0951C70.8453 67.159 71.525 66.3482 72.3607 65.7288C73.1964 65.1095 74.1644 64.6989 75.186 64.5306C76.2076 64.3623 77.2539 64.441 78.2399 64.7602C79.2259 65.0795 80.1236 65.6303 80.8602 66.3679C81.5967 67.1055 82.1513 68.009 82.4787 69.005C82.8061 70.001 82.8972 71.0614 82.7444 72.0998C82.5917 73.1382 82.1996 74.1254 81.5998 74.9811L86.8794 80.3369C87.0791 80.5466 87.1895 80.8274 87.187 81.119C87.1845 81.4105 87.0693 81.6893 86.8661 81.8955C86.6629 82.1016 86.388 82.2186 86.1006 82.2211C85.8132 82.2236 85.5363 82.1116 85.3296 81.909L80.0511 76.5544C79.0673 77.264 77.9099 77.6853 76.7057 77.772C75.5015 77.8586 74.2971 77.6074 73.2243 77.0458C72.1515 76.4841 71.2519 75.6338 70.6239 74.5879C69.9959 73.542 69.6638 72.3409 69.6641 71.1163Z" fill="#F06423"/>
</g>
<defs>
<clipPath id="clip0">
<rect width="91.0754" height="80.2188" fill="white" transform="translate(21.3086 27.0508)"/>
</clipPath>
</defs>
</svg>
