<svg width="134" height="134" viewBox="0 0 134 134" fill="none" xmlns="http://www.w3.org/2000/svg">
<circle cx="66.8488" cy="66.8918" r="66.4601" fill="#F9EDCC"/>
<g clip-path="url(#clip0)">
<path d="M111.38 96.9136H22.6098C20.8588 96.9136 19.4395 95.4942 19.4395 93.7432V30.3359C19.4395 28.5849 20.8588 27.1655 22.6098 27.1655H111.38C113.131 27.1655 114.55 28.5849 114.55 30.3359V93.7432C114.55 95.4942 113.131 96.9136 111.38 96.9136Z" fill="#46508C"/>
<path d="M105.039 96.9136H22.6098C20.8588 96.9136 19.4395 95.4942 19.4395 93.7432V30.3359C19.4395 28.5849 20.8588 27.1655 22.6098 27.1655H105.039C106.79 27.1655 108.21 28.5849 108.21 30.3359V93.7432C108.21 95.4942 106.79 96.9136 105.039 96.9136Z" fill="#5F78BE"/>
<path d="M92.357 36.6767C92.357 34.9257 90.9376 33.5063 89.1866 33.5063H38.4608C36.7097 33.5063 35.2904 34.9257 35.2904 36.6767C35.2904 40.1786 32.4515 43.0174 28.9497 43.0174C27.1986 43.0174 25.7793 44.4368 25.7793 46.1878V77.8915C25.7793 79.6425 27.1986 81.0618 28.9497 81.0618C32.4515 81.0618 35.2904 83.9007 35.2904 87.4025C35.2904 89.1536 36.7097 90.5729 38.4608 90.5729H89.1866C90.9376 90.5729 92.357 89.1536 92.357 87.4025C92.357 83.9007 95.1958 81.0618 98.6977 81.0618C100.449 81.0618 101.868 79.6425 101.868 77.8915V46.1878C101.868 44.4368 100.449 43.0174 98.6977 43.0174C95.1958 43.0174 92.357 40.1786 92.357 36.6767Z" fill="#46508C"/>
<path d="M79.6768 46.1884H47.9731C46.2221 46.1884 44.8027 44.7691 44.8027 43.018C44.8027 41.267 46.2221 39.8477 47.9731 39.8477H79.6768C81.4278 39.8477 82.8471 41.267 82.8471 43.018C82.8471 44.7691 81.4278 46.1884 79.6768 46.1884Z" fill="#73CDDC"/>
<path d="M92.358 58.8695H35.2915C33.5404 58.8695 32.1211 57.4502 32.1211 55.6992C32.1211 53.9481 33.5404 52.5288 35.2915 52.5288H92.358C94.1091 52.5288 95.5284 53.9481 95.5284 55.6992C95.5284 57.4502 94.1091 58.8695 92.358 58.8695Z" fill="#5F78BE"/>
<path d="M86.0184 71.5502H41.6333C39.8822 71.5502 38.4629 70.1309 38.4629 68.3798C38.4629 66.6288 39.8822 65.2095 41.6333 65.2095H86.0184C87.7694 65.2095 89.1887 66.6288 89.1887 68.3798C89.1887 70.1309 87.7694 71.5502 86.0184 71.5502Z" fill="#5F78BE"/>
<path d="M70.1643 84.2323H57.4829C55.7318 84.2323 54.3125 82.813 54.3125 81.062C54.3125 79.3109 55.7318 77.8916 57.4829 77.8916H70.1643C71.9154 77.8916 73.3347 79.3109 73.3347 81.062C73.3347 82.813 71.9154 84.2323 70.1643 84.2323Z" fill="#5F78BE"/>
<path d="M98.698 77.8916H79.6758V105.2C79.6758 105.876 80.2245 106.425 80.9011 106.425C81.1361 106.425 81.366 106.357 81.5637 106.23L88.214 101.955C88.5043 101.769 88.8419 101.669 89.1869 101.669C89.5319 101.669 89.8695 101.769 90.1598 101.955L96.81 106.23C97.0076 106.357 97.2376 106.425 97.4726 106.425C98.1493 106.425 98.698 105.876 98.698 105.2V77.8916Z" fill="#FAA51E"/>
<path d="M109.795 77.8911C109.795 79.5941 106.454 80.8357 106.035 82.4065C105.6 84.0317 107.86 86.7744 107.036 88.1973C106.201 89.6408 102.689 89.0496 101.517 90.2208C100.346 91.3923 100.937 94.9046 99.4937 95.7396C98.0708 96.5629 95.328 94.3036 93.7028 94.738C92.1321 95.1581 90.8905 98.4984 89.1874 98.4984C87.4844 98.4984 86.2428 95.1581 84.6721 94.7382C83.0468 94.3038 80.3041 96.5631 78.8812 95.7398C77.4377 94.9046 78.029 91.3925 76.8577 90.221C75.6863 89.0496 72.1739 89.6408 71.3389 88.1973C70.5156 86.7744 72.7749 84.0317 72.3405 82.4065C71.9205 80.8357 68.5801 79.5941 68.5801 77.8911C68.5801 76.188 71.9205 74.9464 72.3403 73.3757C72.7747 71.7505 70.5154 69.0077 71.3387 67.5848C72.1739 66.1413 75.6861 66.7326 76.8575 65.5613C78.029 64.3899 77.4377 60.8775 78.8812 60.0425C80.3041 59.2192 83.0468 61.4785 84.6721 61.0441C86.2428 60.6241 87.4844 57.2837 89.1874 57.2837C90.8905 57.2837 92.1321 60.6241 93.7028 61.0439C95.328 61.4783 98.0708 59.2192 99.4937 60.0423C100.937 60.8775 100.346 64.3897 101.517 65.5611C102.689 66.7326 106.201 66.1413 107.036 67.5848C107.859 69.0077 105.6 71.7505 106.034 73.3757C106.454 74.9464 109.795 76.188 109.795 77.8911Z" fill="#F06423"/>
<path d="M89.1878 93.7432C97.9425 93.7432 105.04 86.6461 105.04 77.8914C105.04 69.1367 97.9425 62.0396 89.1878 62.0396C80.433 62.0396 73.3359 69.1367 73.3359 77.8914C73.3359 86.6461 80.433 93.7432 89.1878 93.7432Z" fill="#FAA51E"/>
</g>
<defs>
<clipPath id="clip0">
<rect width="96.0655" height="79.6823" fill="white" transform="translate(18.8145 27.0508)"/>
</clipPath>
</defs>
</svg>
