<svg width="134" height="134" viewBox="0 0 134 134" fill="none" xmlns="http://www.w3.org/2000/svg">
<circle cx="66.8469" cy="66.8918" r="66.4601" fill="#F9EDCC"/>
<path d="M84.2188 56.2002H86.8914V80.2542H84.2188V56.2002Z" fill="#5F78BE"/>
<path d="M85.5551 57.537C93.6735 57.537 100.255 50.9557 100.255 42.8373C100.255 34.719 93.6735 28.1377 85.5551 28.1377C77.4367 28.1377 70.8555 34.719 70.8555 42.8373C70.8555 50.9557 77.4367 57.537 85.5551 57.537Z" fill="#FAA51E"/>
<path d="M85.5575 29.4739C92.926 29.4739 98.9208 35.4687 98.9208 42.8373C98.9208 50.2058 92.926 56.2006 85.5575 56.2006C78.1889 56.2006 72.1941 50.2058 72.1941 42.8373C72.1941 35.4687 78.1889 29.4739 85.5575 29.4739ZM85.5575 26.8013C76.7011 26.8013 69.5215 33.9809 69.5215 42.8373C69.5215 51.6936 76.7011 58.8732 85.5575 58.8732C94.4138 58.8732 101.593 51.6936 101.593 42.8373C101.593 33.9809 94.4138 26.8013 85.5575 26.8013Z" fill="#F06423"/>
<path d="M89.5635 41.5008C90.3015 41.5008 90.8998 40.9025 90.8998 40.1645V39.2618C90.8998 36.9584 89.1377 35.0594 86.8908 34.8405V33.4828C86.8908 32.7448 86.2925 32.1465 85.5545 32.1465C84.8165 32.1465 84.2181 32.7448 84.2181 33.4828V34.8407C81.9713 35.0595 80.2092 36.9586 80.2092 39.262C80.2092 41.1772 81.4301 42.8711 83.247 43.4767L87.0169 44.7334C87.7407 44.9748 88.2271 45.6495 88.2271 46.4127C88.2271 47.3887 87.433 48.1826 86.457 48.1826H84.6518C83.6758 48.1826 82.8816 47.3885 82.8816 46.4127V45.5098C82.8816 44.7718 82.2833 44.1735 81.5453 44.1735C80.8073 44.1735 80.209 44.7718 80.209 45.5098V46.4125C80.209 48.7158 81.9711 50.6149 84.218 50.8338V52.1915C84.218 52.9295 84.8163 53.5278 85.5543 53.5278C86.2923 53.5278 86.8906 52.9295 86.8906 52.1915V50.8336C89.1375 50.6148 90.8996 48.7157 90.8996 46.4123C90.8996 44.497 89.6787 42.8032 87.8618 42.1975L84.0919 40.9409C83.3682 40.6997 82.8818 40.025 82.8818 39.2618C82.8818 38.2859 83.6759 37.4918 84.652 37.4918H86.4572C87.433 37.4918 88.2271 38.2859 88.2271 39.2618V40.1645C88.2271 40.9025 88.8255 41.5008 89.5635 41.5008Z" fill="#F06423"/>
<path d="M104.267 61.5459H96.2493C90.345 61.5459 85.5586 66.3323 85.5586 72.2366C85.5586 73.7125 86.7551 74.9092 88.2313 74.9092H96.2493C102.153 74.9092 106.94 70.1228 106.94 64.2186C106.94 62.7424 105.743 61.5459 104.267 61.5459Z" fill="#5F78BE"/>
<path d="M74.8664 61.5459H66.8484C65.3723 61.5459 64.1758 62.7424 64.1758 64.2186C64.1758 70.1228 68.9622 74.9092 74.8664 74.9092H82.8844C84.3604 74.9092 85.5571 73.7127 85.5571 72.2366C85.5571 66.3323 80.7707 61.5459 74.8664 61.5459Z" fill="#73CDDC"/>
<path d="M44.1289 58.8735H46.8016V85.6002H44.1289V58.8735Z" fill="#5F78BE"/>
<path d="M58.8301 50.855H53.4848C49.0565 50.855 45.4668 54.4447 45.4668 58.873C45.4668 60.3491 46.6633 61.5456 48.1395 61.5456H53.4848C57.9131 61.5456 61.5028 57.9559 61.5028 53.5276C61.5028 52.0515 60.3063 50.855 58.8301 50.855Z" fill="#5F78BE"/>
<path d="M32.1043 50.855H37.4496C41.8779 50.855 45.4676 54.4447 45.4676 58.873C45.4676 60.3491 44.2711 61.5456 42.795 61.5456H37.4496C33.0214 61.5456 29.4316 57.9559 29.4316 53.5276C29.4316 52.0515 30.6282 50.855 32.1043 50.855Z" fill="#73CDDC"/>
<path d="M100.257 85.5997H70.8578C70.1198 85.5997 69.5215 85.0014 69.5215 84.2634V81.5907C69.5215 80.8527 70.1198 80.2544 70.8578 80.2544H100.257C100.995 80.2544 101.593 80.8527 101.593 81.5907V84.2634C101.593 85.0014 100.995 85.5997 100.257 85.5997Z" fill="#FAA51E"/>
<path d="M100.254 80.2544H85.5547V85.5997H100.254C100.992 85.5997 101.591 85.0014 101.591 84.2634V81.5907C101.591 80.8527 100.992 80.2544 100.254 80.2544Z" fill="#F06423"/>
<path d="M97.5833 90.9464H68.184C67.446 90.9464 66.8477 90.3481 66.8477 89.6101V86.9374C66.8477 86.1994 67.446 85.6011 68.184 85.6011H97.5833C98.3213 85.6011 98.9196 86.1994 98.9196 86.9374V89.6101C98.9196 90.3481 98.3213 90.9464 97.5833 90.9464Z" fill="#FFCD06"/>
<path d="M97.5844 85.6001H82.8848V90.9454H97.5844C98.3224 90.9454 98.9207 90.3471 98.9207 89.6091V86.9364C98.9207 86.1984 98.3224 85.6001 97.5844 85.6001Z" fill="#FAA51E"/>
<path d="M100.257 101.637H70.8578C70.1198 101.637 69.5215 101.038 69.5215 100.3V97.6278C69.5215 96.8898 70.1198 96.2915 70.8578 96.2915H100.257C100.995 96.2915 101.593 96.8898 101.593 97.6278V100.3C101.593 101.038 100.995 101.637 100.257 101.637Z" fill="#FFCD06"/>
<path d="M100.254 96.291H85.5547V101.636H100.254C100.992 101.636 101.591 101.038 101.591 100.3V97.6273C101.591 96.8894 100.992 96.291 100.254 96.291Z" fill="#FAA51E"/>
<path d="M97.5833 106.981H68.184C67.446 106.981 66.8477 106.382 66.8477 105.644V102.972C66.8477 102.234 67.446 101.635 68.184 101.635H97.5833C98.3213 101.635 98.9196 102.234 98.9196 102.972V105.644C98.9196 106.382 98.3213 106.981 97.5833 106.981Z" fill="#FAA51E"/>
<path d="M97.5844 101.635H82.8848V106.981H97.5844C98.3224 106.981 98.9207 106.382 98.9207 105.644V102.972C98.9207 102.234 98.3224 101.635 97.5844 101.635Z" fill="#F06423"/>
<path d="M100.257 96.2921H70.8578C70.1198 96.2921 69.5215 95.6938 69.5215 94.9558V92.2831C69.5215 91.5451 70.1198 90.9468 70.8578 90.9468H100.257C100.995 90.9468 101.593 91.5451 101.593 92.2831V94.9558C101.593 95.6938 100.995 96.2921 100.257 96.2921Z" fill="#FAA51E"/>
<path d="M100.254 90.9458H85.5547V96.2911H100.254C100.992 96.2911 101.591 95.6928 101.591 94.9548V92.2821C101.591 91.5441 100.992 90.9458 100.254 90.9458Z" fill="#F06423"/>
<path d="M33.4398 90.9454H62.8392C63.5771 90.9454 64.1755 90.3471 64.1755 89.6091V86.9364C64.1755 86.1984 63.5771 85.6001 62.8392 85.6001H33.4398C32.7019 85.6001 32.1035 86.1984 32.1035 86.9364V89.6091C32.1035 90.3471 32.7019 90.9454 33.4398 90.9454Z" fill="#FAA51E"/>
<path d="M33.4398 85.6001H48.1395V90.9454H33.4398C32.7019 90.9454 32.1035 90.3471 32.1035 89.6091V86.9364C32.1035 86.1984 32.7019 85.6001 33.4398 85.6001Z" fill="#FFCD06"/>
<path d="M30.768 101.636H60.1673C60.9053 101.636 61.5036 101.038 61.5036 100.3V97.6273C61.5036 96.8894 60.9053 96.291 60.1673 96.291H30.768C30.03 96.291 29.4316 96.8894 29.4316 97.6273V100.3C29.4316 101.038 30.03 101.636 30.768 101.636Z" fill="#FAA51E"/>
<path d="M30.768 96.291H45.4676V101.636H30.768C30.03 101.636 29.4316 101.038 29.4316 100.3V97.6273C29.4316 96.8894 30.03 96.291 30.768 96.291Z" fill="#FFCD06"/>
<path d="M30.768 106.982H60.1673C60.9053 106.982 61.5036 106.383 61.5036 105.645V102.973C61.5036 102.235 60.9053 101.636 60.1673 101.636H30.768C30.03 101.636 29.4316 102.235 29.4316 102.973V105.645C29.4316 106.383 30.03 106.982 30.768 106.982Z" fill="#F06423"/>
<path d="M30.768 101.636H45.4676V106.982H30.768C30.03 106.982 29.4316 106.383 29.4316 105.645V102.973C29.4316 102.235 30.03 101.636 30.768 101.636Z" fill="#FAA51E"/>
<path d="M28.0941 96.2902H57.4934C58.2314 96.2902 58.8298 95.6918 58.8298 94.9538V92.2812C58.8298 91.5432 58.2314 90.9448 57.4934 90.9448H28.0941C27.3562 90.9448 26.7578 91.5432 26.7578 92.2812V94.9538C26.7578 95.6918 27.3562 96.2902 28.0941 96.2902Z" fill="#F06423"/>
<path d="M28.0941 90.9448H42.7938V96.2902H28.0941C27.3562 96.2902 26.7578 95.6918 26.7578 94.9538V92.2812C26.7578 91.5432 27.3562 90.9448 28.0941 90.9448Z" fill="#FAA51E"/>
<path d="M58.8281 76.2458H61.5008V73.5731C61.5008 72.8352 60.9024 72.2368 60.1645 72.2368C59.4265 72.2368 58.8281 72.8352 58.8281 73.5731V76.2458Z" fill="#FAA51E"/>
<path d="M60.1645 82.927C60.9024 82.927 61.5008 82.3286 61.5008 81.5906V78.918H58.8281V81.5906C58.8281 82.3286 59.4265 82.927 60.1645 82.927Z" fill="#FAA51E"/>
<path d="M58.8293 78.9188V76.2461H56.1566C55.4187 76.2461 54.8203 76.8444 54.8203 77.5824C54.8203 78.3204 55.4187 78.9188 56.1566 78.9188H58.8293Z" fill="#FAA51E"/>
<path d="M65.5109 77.5824C65.5109 76.8444 64.9126 76.2461 64.1746 76.2461H61.502V78.9188H64.1746C64.9126 78.9188 65.5109 78.3204 65.5109 77.5824Z" fill="#FAA51E"/>
<path d="M34.7773 69.5642H37.45V66.8915C37.45 66.1535 36.8517 65.5552 36.1137 65.5552C35.3757 65.5552 34.7773 66.1535 34.7773 66.8915V69.5642Z" fill="#FAA51E"/>
<path d="M36.1137 76.2458C36.8517 76.2458 37.45 75.6475 37.45 74.9095V72.2368H34.7773V74.9095C34.7773 75.6475 35.3757 76.2458 36.1137 76.2458Z" fill="#FAA51E"/>
<path d="M34.7766 72.2371V69.5645H32.1039C31.3659 69.5645 30.7676 70.1628 30.7676 70.9008C30.7676 71.6388 31.3659 72.2371 32.1039 72.2371H34.7766Z" fill="#FAA51E"/>
<path d="M41.4582 70.8998C41.4582 70.1618 40.8599 69.5635 40.1219 69.5635H37.4492V72.2361H40.1219C40.8599 72.2361 41.4582 71.6378 41.4582 70.8998Z" fill="#FAA51E"/>
<path d="M61.5 37.4924H64.1727V34.8197C64.1727 34.0817 63.5743 33.4834 62.8363 33.4834C62.0983 33.4834 61.5 34.0817 61.5 34.8197V37.4924Z" fill="#FAA51E"/>
<path d="M62.8363 44.1735C63.5743 44.1735 64.1727 43.5752 64.1727 42.8372V40.1646H61.5V42.8372C61.5 43.5752 62.0983 44.1735 62.8363 44.1735Z" fill="#FAA51E"/>
<path d="M61.5012 40.1653V37.4927H58.8285C58.0905 37.4927 57.4922 38.091 57.4922 38.829C57.4922 39.567 58.0905 40.1653 58.8285 40.1653H61.5012Z" fill="#FAA51E"/>
<path d="M68.1809 38.8285C68.1809 38.0905 67.5825 37.4922 66.8445 37.4922H64.1719V40.1649H66.8445C67.5825 40.1649 68.1809 39.5665 68.1809 38.8285Z" fill="#FAA51E"/>
</svg>
