<svg width="134" height="134" viewBox="0 0 134 134" fill="none" xmlns="http://www.w3.org/2000/svg">
<circle cx="66.6242" cy="67.236" r="66.4601" fill="#F9EDCC"/>
<g clip-path="url(#clip0)">
<path d="M51.0852 62.5869H47.3559C43.9287 62.5869 41.1404 65.3752 41.1404 68.8024V81.2334H37.047C36.5616 81.2334 36.168 81.627 36.168 82.1125C36.168 82.3456 36.2606 82.5692 36.4254 82.734L41.5044 87.813C42.0673 88.3758 42.8307 88.6921 43.6266 88.6921C44.4225 88.6921 45.1859 88.3758 45.7487 87.813L50.8277 82.734C50.9926 82.5692 51.0852 82.3456 51.0852 82.1125C51.0852 81.627 50.6916 81.2334 50.2062 81.2334H46.1128V68.8024C46.1128 68.117 46.6705 67.5593 47.3559 67.5593H51.0852C52.4582 67.5593 53.5714 66.4463 53.5714 65.0731C53.5714 63.7 52.4582 62.5869 51.0852 62.5869Z" fill="#5F78BE"/>
<path d="M93.3508 36.4819H80.9198C79.5466 36.4819 78.4336 37.5951 78.4336 38.9681C78.4336 40.3411 79.5466 41.4543 80.9198 41.4543H93.3508C94.0362 41.4543 94.5939 42.012 94.5939 42.6974V61.344C94.5939 62.0294 94.0362 62.5871 93.3508 62.5871H89.6215V58.4937C89.6215 58.0083 89.2279 57.6147 88.7425 57.6147C88.5094 57.6147 88.2858 57.7073 88.1209 57.8721L83.0419 62.9511C82.4791 63.514 82.1629 64.2774 82.1629 65.0733C82.1629 65.8692 82.4791 66.6326 83.0419 67.1954L88.1209 72.2744C88.2858 72.4393 88.5094 72.5319 88.7425 72.5319C89.2279 72.5319 89.6215 72.1383 89.6215 71.6529V67.5595H93.3508C96.778 67.5595 99.5663 64.7712 99.5663 61.344V42.6974C99.5663 39.2702 96.778 36.4819 93.3508 36.4819Z" fill="#5F78BE"/>
<path d="M66.0022 52.6432C73.5542 52.6432 79.6764 46.521 79.6764 38.969C79.6764 31.417 73.5542 25.2949 66.0022 25.2949C58.4502 25.2949 52.3281 31.417 52.3281 38.969C52.3281 46.521 58.4502 52.6432 66.0022 52.6432Z" fill="#FAA51E"/>
<path d="M66.0012 26.537C72.8557 26.537 78.4322 32.1135 78.4322 38.968C78.4322 45.8225 72.8557 51.399 66.0012 51.399C59.1467 51.399 53.5702 45.8225 53.5702 38.968C53.5702 32.1135 59.1467 26.537 66.0012 26.537ZM66.0012 24.0508C57.7627 24.0508 51.084 30.7295 51.084 38.968C51.084 47.2065 57.7627 53.8852 66.0012 53.8852C74.2397 53.8852 80.9184 47.2065 80.9184 38.968C80.9184 30.7295 74.2397 24.0508 66.0012 24.0508Z" fill="#F06423"/>
<path d="M67.2461 86.2056H56.6614C54.6834 86.2056 52.7862 86.9914 51.3874 88.3902L48.5996 91.178L54.8151 97.3935L57.8163 94.3923C58.2826 93.926 58.9149 93.6642 59.5743 93.6642H67.2461C69.3058 93.6642 70.9754 91.9945 70.9754 89.9349C70.9754 87.8752 69.3058 86.2056 67.2461 86.2056Z" fill="#FAB991"/>
<path d="M85.1639 84.4475C84.193 83.4765 82.6188 83.4765 81.6479 84.4475L72.4312 93.6642H59.5737C58.9144 93.6642 58.2819 93.9262 57.8156 94.3923L54.8145 97.3935L58.5438 101.123L61.03 98.6366H72.9462C73.9424 98.6366 74.8789 98.2486 75.5831 97.5442L85.1639 87.9635C86.1347 86.9926 86.1347 85.4185 85.1639 84.4475Z" fill="#F0915A"/>
<path d="M67.2456 92.0065H66.4169C65.7304 92.0065 65.1738 91.4499 65.1738 90.7634V89.1059C65.1738 88.4194 65.7304 87.8628 66.4169 87.8628H67.2456C68.3899 87.8628 69.3174 88.7905 69.3174 89.9346C69.3174 91.079 68.3899 92.0065 67.2456 92.0065Z" fill="#F0915A"/>
<path d="M48.2348 90.8143L54.8144 97.3938L48.5989 103.609H33.6816L46.4767 90.8143C46.9622 90.3288 47.7494 90.3288 48.2348 90.8143Z" fill="#5F78BE"/>
<path d="M54.8151 97.3936L58.9085 101.487C59.3939 101.972 59.3939 102.76 58.9085 103.245L58.5444 103.609H48.5996L54.8151 97.3936Z" fill="#46508C"/>
<path d="M78.4322 77.5038H53.5702C52.197 77.5038 51.084 76.3908 51.084 75.0176V58.8573C51.084 57.4841 52.197 56.3711 53.5702 56.3711H78.4322C79.8054 56.3711 80.9184 57.4841 80.9184 58.8573V75.0176C80.9184 76.3908 79.8052 77.5038 78.4322 77.5038Z" fill="#5F78BE"/>
<path d="M80.9184 73.7745H51.084V58.8573C51.084 57.4841 52.197 56.3711 53.5702 56.3711H78.4322C79.8054 56.3711 80.9184 57.4841 80.9184 58.8573V73.7745Z" fill="#46508C"/>
<path d="M63.5156 77.5039H68.488V81.2332H63.5156V77.5039Z" fill="#46508C"/>
<path d="M70.9741 83.7196H61.0293C61.0293 82.3464 62.1423 81.2334 63.5155 81.2334H68.4879C69.8609 81.2334 70.9741 82.3464 70.9741 83.7196Z" fill="#5F78BE"/>
<path d="M66.0026 71.2884C69.4354 71.2884 72.2181 68.5057 72.2181 65.0729C72.2181 61.6402 69.4354 58.8574 66.0026 58.8574C62.5699 58.8574 59.7871 61.6402 59.7871 65.0729C59.7871 68.5057 62.5699 71.2884 66.0026 71.2884Z" fill="#5F78BE"/>
<path d="M66.0011 58.2363C62.2311 58.2363 59.1641 61.3034 59.1641 65.0734C59.1641 68.8434 62.2311 71.9104 66.0011 71.9104C69.7711 71.9104 72.8382 68.8434 72.8382 65.0734C72.8382 61.3034 69.7711 58.2363 66.0011 58.2363ZM71.5597 64.4518H68.6844C68.6284 62.7115 68.3363 60.9684 67.7845 59.7726C69.808 60.4554 71.3168 62.2648 71.5597 64.4518ZM66.0011 70.6673C65.6049 70.6673 64.6698 68.9298 64.5615 65.6949H67.4408C67.3323 68.9298 66.3974 70.6673 66.0011 70.6673ZM64.5615 64.4518C64.6699 61.217 65.6049 59.4794 66.0011 59.4794C66.3974 59.4794 67.3323 61.217 67.4408 64.4518H64.5615ZM64.2176 59.7726C63.6658 60.9684 63.3737 62.7115 63.3177 64.4518H60.4426C60.6855 62.2648 62.1941 60.4554 64.2176 59.7726ZM60.4426 65.6949H63.3177C63.3737 67.4353 63.6658 69.1784 64.2176 70.3741C62.1941 69.6914 60.6855 67.882 60.4426 65.6949ZM67.7847 70.3741C68.3364 69.1784 68.6286 67.4353 68.6845 65.6949H71.5598C71.3168 67.882 69.808 69.6914 67.7847 70.3741Z" fill="#73CDDC"/>
<path d="M76.1346 38.4479C74.2034 34.6798 70.3801 32.1304 66.0023 32.1304C61.6245 32.1304 57.8002 34.6816 55.87 38.4483C55.7885 38.6094 55.7461 38.7875 55.7461 38.968C55.7461 39.1486 55.7885 39.3266 55.87 39.4878C57.8012 43.2559 61.6245 45.8053 66.0023 45.8053C70.3801 45.8053 74.2044 43.2541 76.1346 39.4874C76.2161 39.3263 76.2585 39.1482 76.2585 38.9677C76.2585 38.7871 76.2161 38.6091 76.1346 38.4479ZM66.0023 44.096C64.9881 44.096 63.9966 43.7952 63.1533 43.2317C62.31 42.6682 61.6527 41.8673 61.2645 40.9303C60.8764 39.9933 60.7749 38.9622 60.9727 37.9674C61.1706 36.9727 61.659 36.0589 62.3762 35.3417C63.0934 34.6246 64.0071 34.1361 65.0019 33.9383C65.9966 33.7404 67.0277 33.842 67.9647 34.2301C68.9018 34.6182 69.7027 35.2755 70.2662 36.1188C70.8297 36.9621 71.1304 37.9536 71.1304 38.9679C71.1307 39.6414 70.9983 40.3084 70.7407 40.9307C70.4831 41.553 70.1054 42.1185 69.6292 42.5947C69.1529 43.071 68.5874 43.4487 67.9651 43.7063C67.3428 43.9639 66.6758 44.0963 66.0023 44.096ZM66.0023 35.5491C65.6972 35.5534 65.394 35.5988 65.101 35.6841C65.3425 36.0123 65.4584 36.4162 65.4277 36.8226C65.3969 37.2289 65.2216 37.6108 64.9334 37.899C64.6453 38.1871 64.2634 38.3625 63.857 38.3932C63.4507 38.4239 63.0468 38.308 62.7185 38.0665C62.5316 38.7551 62.5654 39.485 62.815 40.1534C63.0646 40.8218 63.5176 41.3951 64.1101 41.7926C64.7026 42.1901 65.4049 42.3917 66.118 42.3692C66.8312 42.3467 67.5193 42.1011 68.0855 41.667C68.6518 41.2329 69.0677 40.6321 69.2746 39.9493C69.4816 39.2665 69.4692 38.5359 69.2392 37.8605C69.0092 37.1851 68.5732 36.5988 67.9925 36.1842C67.4119 35.7695 66.7158 35.5474 66.0023 35.5491Z" fill="#F06423"/>
</g>
<defs>
<clipPath id="clip0">
<rect width="79.5585" height="79.5585" fill="white" transform="translate(26.8457 24.0508)"/>
</clipPath>
</defs>
</svg>
