<svg width="242" height="375" viewBox="0 0 242 375" fill="none" xmlns="http://www.w3.org/2000/svg">
<ellipse cx="120.924" cy="358.13" rx="120.299" ry="16.8093" fill="#DDDDDD"/>
<path d="M193.311 129.422C193.516 131.41 193.968 136.189 194.168 138.33C198.03 139.456 205.838 141.427 206.179 140.306C206.606 138.905 215.499 135.494 216.717 134.519C224.453 129.098 232.128 119.315 233.286 117.463C234.553 115.124 233.448 113.555 232.738 113.063V112.408C232.007 111.404 229.529 111.583 228.381 111.798C228.588 111.527 228.606 111.267 228.23 111.067C227.194 110.519 225.733 110.702 222.748 111.798C221.187 112.372 214.951 115.027 213.915 115.819C213.087 116.452 212.392 116.374 212.149 116.255C213.065 115.148 213.315 114.361 213.354 113.662C213.44 112.121 210.785 112.549 210.099 113.063C209.414 113.577 202.733 118.373 201.106 119.315C195.025 122.399 193.055 126.939 193.311 129.422Z" fill="url(#paint0_linear)"/>
<path d="M208.004 122.526C210.563 122.526 216.765 123.221 221.102 125.998" stroke="#4F4F4F" stroke-width="0.5"/>
<path d="M73.6641 216.233C70.0328 216.364 69.6068 218.622 69.541 218.851V219.636H72.126H78.4731V217.149C78.0805 216.8 76.5691 216.128 73.6641 216.233Z" fill="#DC996C"/>
<path d="M75.4785 344.318C82.1065 343.049 90.9329 341.791 94.5176 341.321H109.679C110.266 343.789 111.089 349.501 109.679 352.603C108.623 354.926 103.14 355.906 98.051 354.862C88.5247 354.862 83.9895 356.425 77.1705 357.211C63.4201 358.798 67.1935 345.904 75.4785 344.318Z" fill="#141414"/>
<path d="M93.0013 341.627C95.8327 338.796 92.2071 318.481 91.0273 308.508C100.678 301.324 119.594 288.434 118.05 294.354C121.267 312.69 109.781 328.876 109.781 342.672C109.781 344.766 108.259 343.313 99.8997 341.627C98.2289 341.29 95.4661 342.055 93.0013 341.627Z" fill="#4F2117"/>
<path d="M154 347.112C147.543 344.959 144.194 342.251 141.278 342.102H128.047C126.702 343.148 124.101 346.228 124.459 350.175C124.908 355.108 131.897 355.869 135.312 355.869C139.651 355.869 146.211 358.92 156.975 361.387C167.738 363.853 170.071 357.559 168.203 354.587C165.854 350.85 162.072 349.803 154 347.112Z" fill="#141414"/>
<path d="M125.939 345.169C125.939 321.457 122.82 318.481 121.641 308.508C131.291 301.324 150.207 288.434 148.663 294.354C151.88 312.69 142.024 340.135 142.024 341.921C142.024 343.759 140.109 343.243 133.086 343.243C131.035 343.243 127.364 343.127 125.939 345.169Z" fill="#4F2117"/>
<path d="M133.412 176.241C125.657 178.181 117.528 177.929 112.777 177.35C111.571 177.204 110.456 178.091 110.399 179.305L109.826 191.512C109.789 192.299 110.218 193.035 110.921 193.391L121.832 198.915C122.418 199.212 123.11 199.203 123.685 198.888C126.418 197.393 130.938 194.865 133.116 193.448C133.348 193.297 133.542 193.098 133.681 192.857C136.08 188.697 136.176 182.399 136.04 178.144C135.998 176.825 134.692 175.921 133.412 176.241Z" stroke="black"/>
<path d="M92.4106 48.931C93.7094 47.3156 96.0791 48.5926 97.587 49.8205C87.602 40.2747 98.3956 23.1944 101.422 18.5007C114.362 3.77899 134.585 20.7476 138.846 22.8397C149.849 25.784 148.609 48.4864 148.532 50.4798C146.672 59.6792 145.587 61.0386 144.813 63.673C142.085 74.6445 140.612 94.6194 140.216 103.235L128.007 117.906C123.425 113.871 113.542 105.287 110.669 103.235C108.207 71.8424 103.956 68.5974 102.548 65.5935C98.9342 67.8464 97.1975 66.4383 96.1649 65.922C93.3957 63.9507 91.237 58.506 90.7676 56.7694C88.6085 51.9349 91.4247 49.9167 92.4106 48.931Z" fill="url(#paint1_linear)"/>
<path d="M136.006 40.7329C138.094 44.6386 142.081 52.6811 142.336 53.3926C142.655 54.2817 143.04 55.5759 141.932 57.0285C140.854 58.0386 139.979 59.2506 134.727 59.5873" stroke="black"/>
<path d="M113.064 63.7041C113.971 65.0196 115.614 66.9316 120.636 67.5786C124.94 68.1331 134.154 67.5855 139.329 65.192" stroke="black"/>
<path d="M97.2507 53.117C96.2808 52.5409 94.1772 51.7343 93.5222 53.117C93.4311 54.5726 94.7046 58.6661 95.5233 59.6667C96.342 60.6673 97.5238 61.2131 99.7069 60.9402" stroke="#4F4F4F"/>
<path d="M132.005 0.976901C120.924 -0.0439554 115.344 2.14051 112.313 3.70181C113.58 3.98372 116.307 4.62116 117.08 4.91559C118.046 5.28363 118.184 5.9277 117.08 6.43375C107.971 7.35385 99.256 12.3682 97.1657 13.6735C86.9 21.4367 86.9343 29.7136 86.4283 31.344C85.3039 42.0255 90.0253 46.523 92.2741 49.3902C93.9381 47.9959 96.2285 49.4089 97.1657 50.2897L103.032 48.0409V37.8371C102.916 37.857 101.722 38.2619 97.8713 39.7227C98.5353 30.925 101.885 27.5621 103.515 25.6131C110.363 17.4289 121.443 19.9693 125.759 20.9652C139.205 25.2811 144.901 20.7521 145.811 15.0931C146.222 12.5295 145.596 9.87517 144.505 7.61839C142.306 3.0679 137.037 1.44056 132.005 0.976901Z" fill="#591F13"/>
<path d="M133.965 21.7541C143.351 9.11197 137.597 3.1101 133.463 1.54579C134.021 1.41801 135.977 1.92024 137.357 2.22691C141.861 7.32046 140.202 13.7492 140.046 14.4751C139.521 16.9247 135.593 22.1371 133.965 21.7541Z" fill="#803A21"/>
<path d="M128.314 21.4669C136.694 3.74859 120.06 3.99153 115.926 2.42722C116.484 2.29944 116.946 1.72847 118.325 2.03514C128.429 3.71105 130.172 6.04339 131.28 7.86662C133.115 10.8854 132.864 20.8921 128.314 21.4669Z" fill="#803A21"/>
<path d="M119.354 19.3188C119.881 10.7471 116.705 10.5378 112.49 7.4247C113.049 7.29693 113.129 7.25136 113.895 7.25098C115.332 7.92152 121.462 10.4598 120.887 18.9359C120.783 20.4655 120.217 19.6063 119.354 19.3188Z" fill="#803A21"/>
<path d="M113.639 19.3365C114.296 11.5964 107.215 11.3205 104.4 10.2595C104.686 9.852 105.024 9.76357 105.791 9.76318C107.227 10.4337 115.646 10.2179 115.071 18.6939C115.043 19.1082 114.622 19.3365 113.639 19.3365Z" fill="#803A21"/>
<path d="M138.361 27.87V22.7065C143.554 21.6918 146.988 24.5182 148.055 26.0583C147.652 26.9943 146.726 29.1201 146.243 30.1347C144.238 27.4292 140.153 27.4976 138.361 27.87Z" fill="#513D34"/>
<path d="M111.043 36.3892L108.458 31.8042C112.246 28.1101 119.299 24.7612 126.726 27.1553C127.606 28.9627 127.606 30.3795 127.606 31.8042C119.788 31.4544 116.123 32.285 111.043 36.3892Z" fill="#513D34"/>
<path d="M106.989 22.0128C103.727 15.8812 97.4722 16.444 94.4647 16.426C94.5907 15.9448 94.7089 15.7306 95.4275 15.4642C97.0074 15.5944 104.33 13.5051 108.088 20.843C108.277 21.2126 107.912 21.6713 106.989 22.0128Z" fill="#803A21"/>
<path d="M105.395 23.0757C99.9353 18.219 95.2652 18.7402 92.2577 18.7222C92.3837 18.2411 92.6949 17.7574 93.4134 17.491C94.9934 17.6211 100.289 16.518 106.423 22.0831C106.73 22.3621 106.317 22.7341 105.395 23.0757Z" fill="#803A21"/>
<path d="M100.518 29.545C93.4292 27.7706 89.4818 30.4325 86.8082 31.81C86.6969 31.3252 86.5419 30.8969 87.0552 30.3279C88.5156 29.7112 92.955 26.0992 100.969 28.1891C101.371 28.2939 100.905 28.7082 100.518 29.545Z" fill="#803A21"/>
<path d="M97.8326 38.129C90.2202 37.9433 90.0844 39.6283 87.4108 41.0058C87.2995 40.521 86.6942 39.8498 87.3392 39.5771C88.7996 38.9604 89.7335 37.3453 97.8326 36.9118C98.2472 36.8896 97.8326 37.3705 97.8326 38.129Z" fill="#803A21"/>
<path d="M140.047 3.22213C147.02 13.1062 141.292 19.8548 137.557 21.9936H138.945C146.368 18.6895 144.739 9.83031 144.548 9.01623C144.067 6.97173 141.339 3.07823 140.047 3.22213Z" fill="#803A21"/>
<circle cx="122.041" cy="42.4291" r="2.06045" fill="#513D34"/>
<circle cx="143.103" cy="42.4291" r="2.06045" fill="#513D34"/>
<circle cx="123.144" cy="42.0093" r="0.694812" fill="white"/>
<circle cx="144.005" cy="41.7344" r="0.694812" fill="white"/>
<path d="M111.255 106.248L127.886 117.89C130.693 115.215 134.714 109.931 136.305 109.185C136.993 108.863 137.201 111.156 140.066 113.186C142.992 113.544 147.244 125.873 147.935 127.661C148.991 130.396 158.519 150.051 159.837 152.298C170.839 166.709 176.263 163.068 178.277 162.37C183.004 160.666 192.225 138.613 192.605 137.281C197.551 136.33 205.229 139.536 207.359 140.734C197.24 176.15 183.66 180.676 181.264 181.608C167.151 184.538 156.766 174.552 152.771 171.203C149.576 168.525 142.564 158.118 139.457 153.249L147.313 186.668C147.268 190.973 146.381 200.355 143.185 203.444C139.191 207.305 84.928 195.263 84.5008 193.725C85.4406 182.926 91.2079 156.729 94.5291 142.642C88.8742 146.079 77.0424 153.343 74.9545 154.909C66.8114 159.711 67.5066 167.773 68.8721 171.203L87.158 198.4L71.5065 209.402C65.2918 199.479 52.5784 179.141 51.4422 177.172C47.3707 169.124 48.0499 165.126 48.5415 162.791C50.6304 155.541 57.756 147.677 59.5991 145.465C74.3447 129.982 89.5831 124.207 91.7949 123.224C94.1296 122.118 101.415 120.523 103.909 119.969C107.125 118.195 110.146 110.082 111.255 106.248Z" fill="#A6D6D8"/>
<path d="M128.09 120.343C128.6 130.168 129.095 153.233 126.994 166.891" stroke="black"/>
<path d="M191.264 146.743C192.713 146.68 196.874 147.408 201.928 150.827" stroke="#4F4F4F" stroke-width="0.5"/>
<path d="M79.3574 191.339C76.5908 192.393 70.3144 195.276 67.3418 198.375" stroke="#4F4F4F" stroke-width="0.5"/>
<path d="M104.564 119.04L108.633 113.349L110.902 168.448C117.071 168.67 130.713 168.847 135.932 167.782C136.598 163.122 138.861 118.464 138.695 116.26C139.18 115.819 139.779 115.011 140.018 114.662L140.569 115.198C140.887 129.132 142.137 159.155 144.587 167.782C145.652 173.507 148.501 208.988 150.969 238.642C153.436 268.296 156.71 306.51 153.436 310.439C149.344 315.349 90.1593 314.94 85.5578 310.439C81.8766 306.838 82.0189 255.484 82.0192 231.301C81.8598 221.375 82.6153 201.413 83.8432 194.762C105.639 189.236 106.738 141.978 104.564 119.04Z" fill="#BB502E"/>
<path d="M95.5706 210.744C94.8575 210.592 94.9459 210.551 93.0898 209.402C93.0898 211.303 93.4434 215.166 94.8575 215.413C96.6251 215.722 97.4997 214.628 97.9955 213.866C98.3483 213.324 98.9678 212.319 98.6142 211.038C98.2606 209.756 97.3012 211.113 95.5706 210.744Z" fill="#D38D6B"/>
<path d="M93.0188 208.27C92.6162 205.785 87.6453 200.182 85.2102 197.692C81.6567 199.511 76.2364 203.501 75.0946 205.718C73.6675 208.488 73.1356 210.436 73.878 214.986C74.271 217.395 76.8926 216.593 76.5328 218.871C73.8463 218.643 70.0597 218.68 68.2967 219.1C66.5337 219.52 66.6291 220.463 66.7382 221.23C66.9055 222.406 69.3456 223.046 71.6963 223.549C75.9779 224.473 86.3574 224.533 88.2883 224.029C90.8908 223.525 93.606 220.863 94.6135 219.1C95.369 217.253 93.8579 210.537 93.0188 208.27Z" fill="url(#paint2_linear)"/>
<path d="M126.959 116.463L110.969 102.854L110.661 102.991C110.746 104.25 110.376 108.98 110.176 111.246L124.239 127.237L126.959 116.463Z" fill="#DDE7E6"/>
<path d="M131.283 125.704L128.801 116.511C132.127 112.386 139.034 103.724 140.262 102.062C140.141 103.57 140.164 111.207 140.315 114.831L131.283 125.704Z" fill="#DDE7E6"/>
<path d="M86.9811 198.096L72.7906 208.601L71.669 209.402L69.8086 206.42L83.0955 192.372L86.9811 198.096Z" fill="#A6D6D8"/>
<circle cx="130.803" cy="131.792" r="0.834324" stroke="black" stroke-width="0.5"/>
<circle cx="130.803" cy="139.556" r="0.834324" stroke="black" stroke-width="0.5"/>
<circle cx="130.594" cy="147.484" r="0.834324" stroke="black" stroke-width="0.5"/>
<circle cx="130.194" cy="155.766" r="0.834324" stroke="black" stroke-width="0.5"/>
<circle cx="129.223" cy="164.198" r="0.834324" stroke="black" stroke-width="0.5"/>
<circle cx="81.8382" cy="195.743" r="0.834324" stroke="black" stroke-width="0.5"/>
<defs>
<linearGradient id="paint0_linear" x1="228.75" y1="113.478" x2="198.61" y2="137.717" gradientUnits="userSpaceOnUse">
<stop stop-color="#F0BA81"/>
<stop offset="1" stop-color="#E3A16D"/>
</linearGradient>
<linearGradient id="paint1_linear" x1="119.292" y1="12.5498" x2="119.292" y2="115.437" gradientUnits="userSpaceOnUse">
<stop stop-color="#F2BE84"/>
<stop offset="1" stop-color="#E29F6B"/>
</linearGradient>
<linearGradient id="paint2_linear" x1="75.434" y1="215.447" x2="88.5006" y2="214.594" gradientUnits="userSpaceOnUse">
<stop stop-color="#EFB980"/>
<stop offset="1" stop-color="#E3A06C"/>
</linearGradient>
</defs>
</svg>
