<svg width="182" height="328" viewBox="0 0 182 328" fill="none" xmlns="http://www.w3.org/2000/svg">
<path d="M17.7617 207.73H160.971V326.42H17.7617V207.73Z" fill="#D9E2E9"/>
<path d="M160.969 207.73V326.414H17.7559V319.512H153.484V207.73H160.969Z" fill="#C1CDD3"/>
<path d="M160.97 327.834H17.7608C17.386 327.834 17.0266 327.685 16.7615 327.42C16.4965 327.155 16.3477 326.795 16.3477 326.421V207.731C16.3477 207.357 16.4965 206.997 16.7615 206.732C17.0266 206.467 17.386 206.318 17.7608 206.318H160.97C161.345 206.318 161.704 206.467 161.969 206.732C162.234 206.997 162.383 207.357 162.383 207.731V326.421C162.383 326.795 162.234 327.155 161.969 327.42C161.704 327.685 161.345 327.834 160.97 327.834ZM19.1739 325.008H159.557V209.145H19.1739V325.008Z" fill="#2F3A5A"/>
<path d="M27.2698 233.356H1.83398L19.177 201.543H39.6585L27.2698 233.356Z" fill="#F14253"/>
<path d="M27.2691 234.768H1.83328C1.5881 234.768 1.34711 234.704 1.13402 234.583C0.920933 234.462 0.743067 234.287 0.617905 234.076C0.492743 233.865 0.424593 233.626 0.420154 233.38C0.415714 233.135 0.475137 232.893 0.592582 232.678L17.9426 200.869C18.0642 200.646 18.2436 200.46 18.462 200.331C18.6803 200.201 18.9295 200.133 19.1833 200.133H39.6578C39.8876 200.133 40.1141 200.189 40.3174 200.296C40.5207 200.403 40.6948 200.559 40.8245 200.748C40.9543 200.938 41.0358 201.157 41.062 201.385C41.0882 201.613 41.0582 201.845 40.9748 202.059L28.5861 233.871C28.4823 234.135 28.3011 234.363 28.0662 234.523C27.8312 234.683 27.5534 234.768 27.2691 234.768ZM4.21436 231.942H26.3025L37.5847 202.958H20.0157L4.21436 231.942Z" fill="#2F3A5A"/>
<path d="M52.7054 233.356H27.2695L39.6582 201.543H60.1383L52.7054 233.356Z" fill="#D9E2E9"/>
<path d="M52.7047 234.766H27.2689C27.039 234.766 26.8126 234.71 26.6093 234.603C26.4059 234.496 26.2318 234.341 26.1021 234.151C25.9723 233.961 25.8908 233.743 25.8647 233.514C25.8385 233.286 25.8684 233.054 25.9519 232.84L38.3405 201.027C38.4438 200.762 38.6249 200.534 38.8599 200.373C39.0949 200.213 39.3729 200.127 39.6575 200.127H60.1376C60.3506 200.127 60.5609 200.175 60.7527 200.268C60.9445 200.36 61.1128 200.495 61.2452 200.662C61.3776 200.829 61.4705 201.023 61.517 201.231C61.5636 201.439 61.5625 201.655 61.514 201.862L54.081 233.675C54.0084 233.986 53.8328 234.263 53.5829 234.461C53.333 234.659 53.0235 234.766 52.7047 234.766ZM29.3362 231.94H51.5841L58.3571 202.956H40.6227L29.3362 231.94Z" fill="#2F3A5A"/>
<path d="M78.1409 233.356H52.7051L60.138 201.543H80.6181L78.1409 233.356Z" fill="#F14253"/>
<path d="M78.1404 234.766H52.7046C52.4916 234.766 52.2813 234.718 52.0895 234.626C51.8977 234.533 51.7294 234.398 51.597 234.231C51.4646 234.064 51.3717 233.87 51.3252 233.662C51.2786 233.454 51.2797 233.238 51.3282 233.031L58.7611 201.218C58.8338 200.907 59.0094 200.631 59.2593 200.433C59.5091 200.235 59.8187 200.127 60.1375 200.127H80.6176C80.8128 200.126 81.006 200.166 81.1851 200.244C81.3641 200.322 81.5251 200.436 81.6579 200.579C81.7906 200.722 81.8923 200.891 81.9565 201.076C82.0206 201.26 82.0459 201.456 82.0307 201.65L79.5535 233.466C79.525 233.821 79.3637 234.152 79.1017 234.393C78.8397 234.634 78.4964 234.767 78.1404 234.766ZM54.4865 231.94H76.8333L79.0943 202.953H61.2581L54.4865 231.94Z" fill="#2F3A5A"/>
<path d="M103.576 233.356H78.1406L80.6178 201.543H101.099L103.576 233.356Z" fill="#D9E2E9"/>
<path d="M103.576 234.766H78.1401C77.9448 234.767 77.7516 234.727 77.5726 234.649C77.3935 234.571 77.2325 234.457 77.0998 234.314C76.967 234.171 76.8653 234.002 76.8012 233.818C76.737 233.633 76.7117 233.438 76.727 233.243L79.2041 201.43C79.2319 201.074 79.393 200.743 79.6551 200.501C79.9171 200.26 80.2608 200.126 80.6172 200.127H101.099C101.455 200.126 101.799 200.26 102.061 200.501C102.323 200.743 102.484 201.074 102.512 201.43L104.989 233.246C105.004 233.44 104.978 233.636 104.914 233.82C104.85 234.004 104.748 234.172 104.615 234.315C104.482 234.458 104.322 234.572 104.143 234.649C103.964 234.727 103.771 234.767 103.576 234.766ZM79.6676 231.94H102.048L99.7874 202.953H81.9244L79.6676 231.94Z" fill="#2F3A5A"/>
<path d="M129.013 233.356H103.577L101.1 201.543H121.58L129.013 233.356Z" fill="#F14253"/>
<path d="M129.012 234.767H103.576C103.219 234.768 102.876 234.635 102.614 234.393C102.352 234.152 102.191 233.82 102.163 233.465L99.6899 201.654C99.6746 201.46 99.6999 201.264 99.764 201.08C99.8282 200.895 99.9299 200.726 100.063 200.583C100.195 200.44 100.356 200.326 100.535 200.248C100.715 200.17 100.908 200.13 101.103 200.131H121.579C121.898 200.131 122.207 200.238 122.457 200.437C122.707 200.635 122.882 200.911 122.955 201.222L130.388 233.035C130.436 233.242 130.437 233.458 130.39 233.665C130.343 233.872 130.25 234.067 130.118 234.233C129.986 234.4 129.817 234.534 129.626 234.627C129.434 234.719 129.224 234.767 129.012 234.767ZM104.883 231.941H127.23L120.458 202.957H102.626L104.883 231.941Z" fill="#2F3A5A"/>
<path d="M154.449 233.356H129.013L121.58 201.543H142.06L154.449 233.356Z" fill="#D9E2E9"/>
<path d="M154.448 234.766H129.013C128.694 234.766 128.384 234.659 128.134 234.461C127.884 234.263 127.709 233.986 127.636 233.675L120.203 201.862C120.155 201.655 120.154 201.439 120.2 201.231C120.247 201.023 120.34 200.829 120.472 200.662C120.604 200.495 120.773 200.36 120.965 200.268C121.156 200.175 121.367 200.127 121.58 200.127H142.06C142.344 200.127 142.622 200.213 142.857 200.373C143.092 200.534 143.273 200.762 143.377 201.027L155.765 232.84C155.849 233.054 155.879 233.286 155.853 233.514C155.826 233.743 155.745 233.961 155.615 234.151C155.485 234.341 155.311 234.496 155.108 234.603C154.905 234.71 154.678 234.766 154.448 234.766ZM130.133 231.94H152.381L141.095 202.956H123.36L130.133 231.94Z" fill="#2F3A5A"/>
<path d="M179.883 233.356H154.447L142.059 201.543H162.54L179.883 233.356Z" fill="#F14253"/>
<path d="M179.884 234.767H154.448C154.163 234.767 153.885 234.682 153.65 234.521C153.415 234.36 153.234 234.132 153.131 233.867L140.741 202.057C140.657 201.843 140.628 201.611 140.654 201.383C140.68 201.155 140.761 200.936 140.891 200.746C141.021 200.557 141.195 200.401 141.398 200.294C141.602 200.187 141.828 200.131 142.058 200.131H162.538C162.792 200.131 163.041 200.199 163.259 200.329C163.478 200.458 163.657 200.644 163.779 200.867L181.122 232.68C181.238 232.895 181.297 233.137 181.293 233.381C181.288 233.626 181.22 233.865 181.095 234.075C180.97 234.285 180.793 234.46 180.581 234.581C180.369 234.703 180.128 234.767 179.884 234.767ZM155.415 231.941H177.504L161.701 202.957H144.132L155.415 231.941Z" fill="#2F3A5A"/>
<path d="M1.83398 233.354V239.939C1.83398 243.312 3.1739 246.546 5.55897 248.931C7.94405 251.317 11.1789 252.656 14.5519 252.656C17.9249 252.656 21.1597 251.317 23.5448 248.931C25.9299 246.546 27.2698 243.312 27.2698 239.939V233.354H1.83398Z" fill="#F14253"/>
<path d="M14.5509 254.073C10.8044 254.069 7.21253 252.579 4.56334 249.93C1.91416 247.281 0.424036 243.689 0.419922 239.942L0.419922 233.355C0.419922 232.98 0.568802 232.62 0.83381 232.355C1.09882 232.09 1.45825 231.941 1.83302 231.941H27.2688C27.6436 231.941 28.0031 232.09 28.2681 232.355C28.5331 232.62 28.6819 232.98 28.6819 233.355V239.94C28.6786 243.687 27.1888 247.279 24.5395 249.929C21.8903 252.579 18.2979 254.069 14.5509 254.073ZM3.24612 234.768V239.94C3.24612 242.938 4.43716 245.813 6.55723 247.933C8.67729 250.053 11.5527 251.244 14.5509 251.244C17.5492 251.244 20.4246 250.053 22.5446 247.933C24.6647 245.813 25.8557 242.938 25.8557 239.94V234.768H3.24612Z" fill="#2F3A5A"/>
<path d="M27.2695 233.354H52.7054V239.939C52.7054 243.312 51.3654 246.546 48.9804 248.931C46.5953 251.317 43.3604 252.656 39.9874 252.656C36.6144 252.656 33.3796 251.317 30.9945 248.931C28.6095 246.546 27.2695 243.312 27.2695 239.939V233.354Z" fill="#D9E2E9"/>
<path d="M39.9865 254.073C36.24 254.069 32.6481 252.579 29.9989 249.93C27.3497 247.281 25.8596 243.689 25.8555 239.942V233.355C25.8555 232.98 26.0043 232.62 26.2694 232.355C26.5344 232.09 26.8938 231.941 27.2686 231.941H52.7044C53.0792 231.941 53.4386 232.09 53.7036 232.355C53.9686 232.62 54.1175 232.98 54.1175 233.355V239.94C54.1141 243.687 52.6243 247.279 49.9751 249.929C47.3258 252.579 43.7335 254.069 39.9865 254.073ZM28.6817 234.768V239.94C28.6817 242.938 29.8727 245.813 31.9928 247.933C34.1128 250.053 36.9883 251.244 39.9865 251.244C42.9847 251.244 45.8601 250.053 47.9802 247.933C50.1002 245.813 51.2913 242.938 51.2913 239.94V234.768H28.6817Z" fill="#2F3A5A"/>
<path d="M52.7051 233.354V239.939C52.7051 243.312 54.045 246.546 56.4301 248.931C58.8151 251.317 62.05 252.656 65.423 252.656C68.796 252.656 72.0308 251.317 74.4159 248.931C76.801 246.546 78.1409 243.312 78.1409 239.939V233.354H52.7051Z" fill="#F14253"/>
<path d="M65.422 254.073C61.6755 254.069 58.0836 252.579 55.4344 249.93C52.7853 247.281 51.2951 243.689 51.291 239.942V233.355C51.291 232.98 51.4399 232.62 51.7049 232.355C51.9699 232.09 52.3293 231.941 52.7041 231.941H78.1399C78.5147 231.941 78.8741 232.09 79.1392 232.355C79.4042 232.62 79.553 232.98 79.553 233.355V239.94C79.5497 243.687 78.0599 247.279 75.4106 249.929C72.7613 252.579 69.169 254.069 65.422 254.073ZM54.1172 234.768V239.94C54.1172 242.938 55.3083 245.813 57.4283 247.933C59.5484 250.053 62.4238 251.244 65.422 251.244C68.4202 251.244 71.2957 250.053 73.4157 247.933C75.5358 245.813 76.7268 242.938 76.7268 239.94V234.768H54.1172Z" fill="#2F3A5A"/>
<path d="M78.1406 233.354V239.939C78.1406 243.312 79.4805 246.546 81.8656 248.931C84.2507 251.317 87.4855 252.656 90.8585 252.656C94.2315 252.656 97.4664 251.317 99.8515 248.931C102.237 246.546 103.576 243.312 103.576 239.939V233.354H78.1406Z" fill="#D9E2E9"/>
<path d="M90.8576 254.073C87.1111 254.069 83.5192 252.579 80.87 249.93C78.2208 247.281 76.7307 243.689 76.7266 239.942V233.355C76.7266 232.98 76.8754 232.62 77.1404 232.355C77.4055 232.09 77.7649 231.941 78.1397 231.941H103.575C103.95 231.941 104.31 232.09 104.575 232.355C104.84 232.62 104.989 232.98 104.989 233.355V239.94C104.985 243.687 103.495 247.279 100.846 249.929C98.1969 252.579 94.6046 254.069 90.8576 254.073ZM79.5528 234.768V239.94C79.5528 242.938 80.7438 245.813 82.8639 247.933C84.9839 250.053 87.8594 251.244 90.8576 251.244C93.8558 251.244 96.7312 250.053 98.8513 247.933C100.971 245.813 102.162 242.938 102.162 239.94V234.768H79.5528Z" fill="#2F3A5A"/>
<path d="M103.576 233.354V239.939C103.576 243.312 104.916 246.546 107.301 248.931C109.686 251.317 112.921 252.656 116.294 252.656C119.667 252.656 122.902 251.317 125.287 248.931C127.672 246.546 129.012 243.312 129.012 239.939V233.354H103.576Z" fill="#F14253"/>
<path d="M116.295 254.073C112.549 254.069 108.957 252.579 106.307 249.93C103.658 247.281 102.168 243.689 102.164 239.942V233.355C102.164 232.98 102.313 232.62 102.578 232.355C102.843 232.09 103.202 231.941 103.577 231.941H129.013C129.388 231.941 129.747 232.09 130.012 232.355C130.277 232.62 130.426 232.98 130.426 233.355V239.94C130.423 243.687 128.933 247.279 126.284 249.929C123.634 252.579 120.042 254.069 116.295 254.073ZM104.99 234.768V239.94C104.99 242.938 106.181 245.813 108.301 247.933C110.421 250.053 113.297 251.244 116.295 251.244C119.293 251.244 122.169 250.053 124.289 247.933C126.409 245.813 127.6 242.938 127.6 239.94V234.768H104.99Z" fill="#2F3A5A"/>
<path d="M129.012 233.354V239.939C129.012 243.312 130.352 246.546 132.737 248.931C135.122 251.317 138.357 252.656 141.73 252.656C145.103 252.656 148.337 251.317 150.723 248.931C153.108 246.546 154.448 243.312 154.448 239.939V233.354H129.012Z" fill="#D9E2E9"/>
<path d="M141.731 254.073C137.984 254.069 134.392 252.579 131.743 249.93C129.094 247.281 127.604 243.689 127.6 239.942V233.355C127.6 232.98 127.748 232.62 128.013 232.355C128.279 232.09 128.638 231.941 129.013 231.941H154.449C154.823 231.941 155.183 232.09 155.448 232.355C155.713 232.62 155.862 232.98 155.862 233.355V239.94C155.858 243.687 154.368 247.279 151.719 249.929C149.07 252.579 145.478 254.069 141.731 254.073ZM130.426 234.768V239.94C130.426 242.938 131.617 245.813 133.737 247.933C135.857 250.053 138.732 251.244 141.731 251.244C144.729 251.244 147.604 250.053 149.724 247.933C151.844 245.813 153.035 242.938 153.035 239.94V234.768H130.426Z" fill="#2F3A5A"/>
<path d="M154.447 233.354V239.939C154.447 243.312 155.787 246.546 158.172 248.931C160.557 251.317 163.792 252.656 167.165 252.656C170.538 252.656 173.773 251.317 176.158 248.931C178.543 246.546 179.883 243.312 179.883 239.939V233.354H154.447Z" fill="#F14253"/>
<path d="M167.166 254.073C163.42 254.069 159.828 252.579 157.179 249.93C154.529 247.281 153.039 243.689 153.035 239.942V233.355C153.035 232.98 153.184 232.62 153.449 232.355C153.714 232.09 154.073 231.941 154.448 231.941H179.884C180.259 231.941 180.618 232.09 180.883 232.355C181.148 232.62 181.297 232.98 181.297 233.355V239.94C181.294 243.687 179.804 247.279 177.155 249.929C174.505 252.579 170.913 254.069 167.166 254.073ZM155.861 234.768V239.94C155.861 242.938 157.052 245.813 159.172 247.933C161.293 250.053 164.168 251.244 167.166 251.244C170.164 251.244 173.04 250.053 175.16 247.933C177.28 245.813 178.471 242.938 178.471 239.94V234.768H155.861Z" fill="#2F3A5A"/>
<path d="M37.8984 269.742H73.9028V326.419H37.8984V269.742Z" fill="#BD8D5A"/>
<path d="M73.9005 327.832H37.8975C37.5227 327.832 37.1633 327.684 36.8983 327.419C36.6333 327.154 36.4844 326.794 36.4844 326.419V269.741C36.4844 269.366 36.6333 269.007 36.8983 268.742C37.1633 268.477 37.5227 268.328 37.8975 268.328H73.9005C74.2752 268.328 74.6347 268.477 74.8997 268.742C75.1647 269.007 75.3136 269.366 75.3136 269.741V326.418C75.3138 326.604 75.2773 326.787 75.2064 326.959C75.1355 327.131 75.0314 327.287 74.9002 327.418C74.7689 327.549 74.6131 327.654 74.4416 327.725C74.27 327.796 74.0862 327.832 73.9005 327.832ZM39.3092 325.006H72.4874V271.154H39.3106L39.3092 325.006Z" fill="#2F3A5A"/>
<path d="M92.627 269.742H118.008V290.222H92.627V269.742Z" fill="#5FC4F8"/>
<path d="M118.002 269.738V290.217H92.6309V286.53H113.507V269.738H118.002Z" fill="#38AECE"/>
<path d="M118.008 269.742H143.389V290.222H118.008V269.742Z" fill="#5FC4F8"/>
<path d="M92.627 290.223H118.008V310.703H92.627V290.223Z" fill="#5FC4F8"/>
<path d="M118.008 290.223H143.389V310.703H118.008V290.223Z" fill="#5FC4F8"/>
<path d="M143.387 269.738V290.217H118.002V286.53H138.876V269.738H143.387Z" fill="#38AECE"/>
<path d="M118.002 290.217V310.697H92.6309V307.01H113.507V290.217H118.002Z" fill="#38AECE"/>
<path d="M143.387 290.217V310.697H118.002V307.01H138.876V290.217H143.387Z" fill="#38AECE"/>
<path d="M118.009 291.636H92.6279C92.2532 291.636 91.8937 291.487 91.6287 291.222C91.3637 290.957 91.2148 290.597 91.2148 290.223V269.741C91.2148 269.366 91.3637 269.007 91.6287 268.742C91.8937 268.477 92.2532 268.328 92.6279 268.328H118.009C118.383 268.328 118.743 268.477 119.008 268.742C119.273 269.007 119.422 269.366 119.422 269.741V290.223C119.422 290.597 119.273 290.957 119.008 291.222C118.743 291.487 118.383 291.636 118.009 291.636ZM94.041 288.81H116.596V271.154H94.041V288.81Z" fill="#2F3A5A"/>
<path d="M143.391 291.636H118.009C117.634 291.636 117.275 291.487 117.01 291.222C116.745 290.957 116.596 290.597 116.596 290.223V269.741C116.596 269.366 116.745 269.007 117.01 268.742C117.275 268.477 117.634 268.328 118.009 268.328H143.391C143.766 268.328 144.125 268.477 144.39 268.742C144.655 269.007 144.804 269.366 144.804 269.741V290.223C144.804 290.597 144.655 290.957 144.39 291.222C144.125 291.487 143.766 291.636 143.391 291.636ZM119.422 288.81H141.978V271.154H119.422V288.81Z" fill="#2F3A5A"/>
<path d="M118.009 312.114H92.6279C92.2532 312.114 91.8937 311.966 91.6287 311.701C91.3637 311.436 91.2148 311.076 91.2148 310.701V290.223C91.2148 289.848 91.3637 289.488 91.6287 289.223C91.8937 288.958 92.2532 288.81 92.6279 288.81H118.009C118.383 288.81 118.743 288.958 119.008 289.223C119.273 289.488 119.422 289.848 119.422 290.223V310.703C119.421 311.077 119.272 311.436 119.007 311.701C118.742 311.966 118.383 312.114 118.009 312.114ZM94.041 309.288H116.596V291.636H94.041V309.288Z" fill="#2F3A5A"/>
<path d="M143.391 312.114H118.009C117.634 312.114 117.275 311.966 117.01 311.701C116.745 311.436 116.596 311.076 116.596 310.701V290.223C116.596 289.848 116.745 289.488 117.01 289.223C117.275 288.958 117.634 288.81 118.009 288.81H143.391C143.766 288.81 144.125 288.958 144.39 289.223C144.655 289.488 144.804 289.848 144.804 290.223V310.703C144.804 311.077 144.655 311.436 144.39 311.701C144.125 311.966 143.765 312.114 143.391 312.114ZM119.422 309.288H141.978V291.636H119.422V309.288Z" fill="#2F3A5A"/>
<path d="M19.5332 185.508H162.54V201.544H19.5332V185.508Z" fill="#D9E2E9"/>
<path d="M162.536 185.51V201.543H19.5273V195.45H155.304V185.51H162.536Z" fill="#C1CDD3"/>
<path d="M162.541 202.958H19.5322C19.1575 202.958 18.798 202.809 18.533 202.544C18.268 202.279 18.1191 201.919 18.1191 201.545V185.509C18.1191 185.134 18.268 184.775 18.533 184.51C18.798 184.245 19.1575 184.096 19.5322 184.096H162.538C162.913 184.096 163.272 184.245 163.537 184.51C163.802 184.775 163.951 185.134 163.951 185.509V201.545C163.951 201.919 163.803 202.278 163.538 202.543C163.274 202.808 162.915 202.957 162.541 202.958ZM20.9482 200.132H161.128V186.922H20.9482V200.132Z" fill="#2F3A5A"/>
<path d="M67.6846 306.12C67.3098 306.12 66.9504 305.971 66.6854 305.706C66.4204 305.441 66.2715 305.081 66.2715 304.706V297.741C66.2715 297.366 66.4204 297.007 66.6854 296.742C66.9504 296.477 67.3098 296.328 67.6846 296.328C68.0594 296.328 68.4188 296.477 68.6838 296.742C68.9488 297.007 69.0977 297.366 69.0977 297.741V304.706C69.0977 305.081 68.9488 305.441 68.6838 305.706C68.4188 305.971 68.0594 306.12 67.6846 306.12Z" fill="#2F3A5A"/>
<path fill-rule="evenodd" clip-rule="evenodd" d="M119.958 111.283L144.075 87.1939C146.121 85.1513 146.121 81.8058 144.075 79.7631L140.099 75.7978C138.054 73.7549 134.711 73.7549 132.665 75.7978L132.558 75.8988L108.649 99.779L108.548 99.8865C106.502 101.929 106.502 105.268 108.548 107.311L112.524 111.283C112.929 111.688 113.391 112.016 113.885 112.263H118.596C119.09 112.016 119.546 111.688 119.958 111.283Z" fill="#DAD0D3"/>
<path fill-rule="evenodd" clip-rule="evenodd" d="M108.648 99.7797L132.557 75.8997L122.097 65.4521C106.432 56.5794 93.7498 76.9179 97.2385 88.3836L108.648 99.7797Z" fill="#FFDCD5"/>
<path fill-rule="evenodd" clip-rule="evenodd" d="M62.7241 112.263H67.435C67.929 112.016 68.3848 111.687 68.7964 111.282L72.7729 107.311C74.818 105.268 74.818 101.929 72.7729 99.8863L72.6652 99.7788L48.7562 75.8988L48.6547 75.7978C46.6096 73.7549 43.2601 73.7549 41.215 75.7978L37.2449 79.7631C35.1996 81.8058 35.1996 85.1513 37.2449 87.1939L61.3564 111.283C61.768 111.687 62.2301 112.016 62.7241 112.263Z" fill="#9D9AE8"/>
<path fill-rule="evenodd" clip-rule="evenodd" d="M101.114 86.4039L115.88 71.6623L122.098 65.4518L124.054 63.4979C126.213 61.3348 126.213 57.8061 124.054 55.6494C121.895 53.4866 118.355 53.4866 116.196 55.6494L118.166 53.6763C120.331 51.5199 120.331 47.9847 118.166 45.8281C116.006 43.6652 112.467 43.6652 110.308 45.8281L112.277 43.8549C114.442 41.6985 114.442 38.1633 112.277 36.0067C110.118 33.8501 106.578 33.8501 104.419 36.0067L106.395 34.04C108.554 31.8771 108.554 28.3482 106.395 26.1853C105.084 24.8825 103.273 24.3641 101.57 24.6423C100.455 24.8194 99.3852 25.3316 98.5304 26.1853L90.66 34.0525L90.9132 34.3054L90.9574 34.3499C93.1167 36.5063 93.1167 40.0415 90.9574 42.1981C88.7984 44.361 85.2589 44.361 83.0996 42.1981C85.2589 44.361 85.2589 47.8897 83.0996 50.0526C80.9343 52.2092 77.4011 52.2092 75.2355 50.0526C77.4011 52.2092 77.4011 55.7444 75.2355 57.901C73.0765 60.0574 69.5433 60.0574 67.3777 57.901C69.5433 60.0574 69.5433 63.5928 67.3777 65.7492C65.2187 67.9121 61.6792 67.9121 59.5199 65.7492L59.2223 65.4518L48.7559 75.8995L72.6647 99.7795L82.6563 89.7999C85.4866 86.872 92.116 89.4333 97.2385 88.3833C98.6953 88.0862 100.025 87.4916 101.114 86.4039Z" fill="#FFD0C7"/>
<path fill-rule="evenodd" clip-rule="evenodd" d="M83.0992 42.1976C85.2584 44.3604 88.7979 44.3604 90.957 42.1976C93.1163 40.041 93.1163 36.5057 90.957 34.3494L90.9127 34.3049C87.5759 34.0647 81.1935 28.2781 80.8136 24.2179C78.6479 22.055 75.1149 22.055 72.9495 24.2179C70.7903 26.3745 70.7903 29.9097 72.9495 32.0661L74.9249 34.0392L83.0992 42.1976Z" fill="#FFDCD5"/>
<path fill-rule="evenodd" clip-rule="evenodd" d="M75.2355 50.0527C77.401 52.2093 80.9342 52.2093 83.0995 50.0527C85.2588 47.8898 85.2588 44.3611 83.0995 42.1982L74.9253 34.0401C72.7598 31.8773 69.2266 31.8773 67.0675 34.0401C64.902 36.1965 64.902 39.7255 67.0675 41.8883L69.0367 43.8552L75.2355 50.0527Z" fill="#FFDCD5"/>
<path fill-rule="evenodd" clip-rule="evenodd" d="M67.3775 57.9007C69.543 60.0571 73.0762 60.0571 75.2353 57.9007C77.4008 55.7441 77.4008 52.2089 75.2353 50.0523L69.0365 43.8546C66.8774 41.6982 63.338 41.6982 61.1787 43.8546C59.0134 46.0175 59.0134 49.5464 61.1787 51.7093L65.1235 55.6491L67.3775 57.9007Z" fill="#FFDCD5"/>
<path fill-rule="evenodd" clip-rule="evenodd" d="M59.5204 65.7493C61.6797 67.9121 65.2191 67.9121 67.3782 65.7493C69.5437 63.5929 69.5437 60.0574 67.3782 57.9011L65.1242 55.6495C62.9586 53.4866 59.4254 53.4866 57.2601 55.6495C55.1008 57.8061 55.1008 61.3348 57.2601 63.4979L59.223 65.4519L59.5204 65.7493Z" fill="#FFDCD5"/>
<path fill-rule="evenodd" clip-rule="evenodd" d="M90.6595 34.0525L98.5299 26.1853C99.3847 25.3315 100.455 24.8194 101.569 24.6422L86.3664 21.7648C83.3652 21.1955 80.5222 21.1767 80.8136 24.2186C81.1934 28.2787 87.5759 34.0652 90.9127 34.3056L90.6595 34.0525Z" fill="#FFDCD5"/>
<path d="M90.6584 15.4001C91.9012 15.4001 92.9087 14.3926 92.9087 13.1498V3.11351C92.9087 1.87076 91.9012 0.863281 90.6584 0.863281C89.4157 0.863281 88.4082 1.87076 88.4082 3.11351V13.1498C88.4084 14.3926 89.4159 15.4001 90.6584 15.4001Z" fill="black"/>
<path d="M145.664 78.1703L141.689 74.2063C140.275 72.794 138.39 72.016 136.382 72.016C135.098 72.016 133.865 72.3355 132.772 72.9341L125.282 65.4521L125.646 65.0877C128.685 62.0427 128.684 57.0947 125.646 54.06C124.561 52.9723 123.206 52.247 121.729 51.9418C121.932 51.24 122.039 50.5049 122.039 49.7526C122.039 47.6623 121.228 45.7023 119.758 44.2386C118.672 43.1509 117.317 42.4256 115.841 42.1204C116.044 41.4186 116.151 40.6837 116.151 39.9312C116.151 37.8407 115.339 35.8809 113.867 34.415C112.755 33.3045 111.388 32.6016 109.953 32.3024C110.721 29.6553 110.065 26.6771 107.982 24.5911C106.249 22.8651 103.897 22.1233 101.63 22.3637L86.7861 19.554C84.5223 19.1245 81.6951 18.8406 79.9108 20.4683C79.7981 20.5711 79.6833 20.6893 79.57 20.8209C76.803 19.8123 73.5759 20.4129 71.3598 22.6262C69.8899 24.0944 69.0801 26.0535 69.0801 28.1427C69.0801 28.8952 69.1867 29.6301 69.3898 30.3321C67.9147 30.6371 66.5618 31.3615 65.4797 32.4456C64.0068 33.9125 63.1946 35.8693 63.193 37.956C63.1923 38.7103 63.2994 39.4477 63.5036 40.1515C62.0278 40.4558 60.674 41.1788 59.5885 42.263C58.1156 43.7343 57.3046 45.6945 57.3046 47.7825C57.3046 49.3821 57.7821 50.9055 58.6669 52.1925C57.5497 52.5712 56.5263 53.2015 55.6695 54.0575C52.6285 57.0947 52.6274 62.0429 55.6715 65.0924L56.035 65.4543L48.5432 72.9325C45.7589 71.6216 42.3285 72.1127 40.0309 74.4074L36.0533 78.3739C34.6385 79.7869 33.8596 81.6718 33.8594 83.6812C33.8594 85.6908 34.6385 87.5759 36.0533 88.9891L41.0174 93.9472C41.8966 94.8255 43.3215 94.8246 44.1996 93.9454C45.0779 93.0662 45.077 91.6413 44.1978 90.7632L39.2337 85.8052C38.6702 85.2423 38.3598 84.488 38.3598 83.6814C38.3598 82.875 38.6702 82.1209 39.2324 81.5594L43.2102 77.5927C44.204 76.5998 45.7252 76.4521 46.8804 77.1427C46.9617 77.265 47.0558 77.3814 47.1635 77.4891C47.3561 77.6823 47.5761 77.8305 47.8101 77.9388L70.6214 100.717C70.7298 100.953 70.8786 101.175 71.0727 101.37C71.2618 101.559 71.4774 101.705 71.7062 101.813C72.1886 102.358 72.4551 103.055 72.4551 103.798C72.4551 104.605 72.1448 105.359 71.5813 105.922L67.6075 109.891C66.4333 111.06 64.5234 111.06 63.3528 109.894L58.3885 104.93C57.5097 104.051 56.0851 104.051 55.2063 104.93C54.3275 105.808 54.3273 107.233 55.2061 108.112L60.1737 113.08C61.6361 114.536 63.5563 115.264 65.4772 115.264C67.3988 115.264 69.3212 114.535 70.7852 113.077L74.7614 109.106C76.1762 107.693 76.9554 105.808 76.9554 103.798C76.9554 102.364 76.5565 100.994 75.8147 99.8128L84.2463 91.3915C84.2553 91.3824 84.2644 91.3732 84.2734 91.3643C85.2388 90.3662 87.9274 90.553 90.5276 90.7335C92.3749 90.8617 94.4346 91.0047 96.4468 90.7728L105.68 99.9952C105.082 101.086 104.763 102.317 104.763 103.599C104.763 105.607 105.542 107.49 106.957 108.904L110.933 112.875C112.347 114.288 114.232 115.066 116.24 115.066C118.248 115.066 120.133 114.288 121.547 112.875L145.665 88.7865C147.08 87.3735 147.859 85.4885 147.859 83.479C147.859 81.4696 147.08 79.5847 145.664 78.1703ZM85.9482 23.9758L95.7095 25.8234L89.8669 31.6638C88.9631 31.2294 87.7243 30.4193 86.3654 29.1193C84.5053 27.3399 83.1745 25.2854 83.0536 24.0039C83.0534 24.0033 83.0534 24.0026 83.0534 24.0019C83.0534 24.0017 83.0534 24.0015 83.0534 24.0013C83.0447 23.9092 83.0424 23.8357 83.0436 23.7796C83.3374 23.7081 84.1194 23.6288 85.9482 23.9758ZM74.54 25.8104C75.68 24.6716 77.451 24.5402 78.7391 25.4125C79.469 28.4731 82.0799 31.2471 83.2545 32.371C84.125 33.2039 86.9182 35.7013 89.7375 36.3877C90.1189 36.9344 90.3265 37.5862 90.3265 38.2739C90.3265 39.1599 89.9857 39.9881 89.3648 40.6084C88.7457 41.2287 87.916 41.5701 87.0286 41.5701C86.1408 41.5701 85.3112 41.2287 84.6892 40.6055L84.689 40.6053L84.6878 40.6042L74.5398 30.4744C73.9211 29.8566 73.5804 29.0284 73.5804 28.1427C73.5806 27.2567 73.9213 26.4285 74.54 25.8104ZM68.6601 35.6298C69.2792 35.0098 70.1079 34.6681 70.9941 34.6681C71.8813 34.6681 72.7128 35.0104 73.3359 35.6329L81.5074 43.7881C82.7942 45.0769 82.7942 47.1741 81.5119 48.4584C80.8894 49.0784 80.0569 49.4199 79.1678 49.4199C78.2788 49.4199 77.4463 49.0784 76.8264 48.4611L76.8262 48.4609L70.627 42.263C70.6174 42.2533 70.6069 42.2444 70.597 42.2346L68.6576 40.296C68.0353 39.6744 67.6928 38.8446 67.6935 37.9593C67.6944 37.077 68.0358 36.2514 68.6601 35.6298ZM62.7689 45.4472C63.3885 44.8285 64.219 44.4877 65.1079 44.4877C65.9893 44.4877 66.8127 44.8235 67.4296 45.4315L73.6478 51.6468C74.2679 52.2644 74.6095 53.0918 74.6095 53.9766C74.6095 54.8612 74.2679 55.6886 73.6454 56.3086C73.026 56.9271 72.1964 57.2678 71.3091 57.2678C70.4205 57.2678 69.5882 56.9262 68.968 56.3086L66.7137 54.0571C66.7133 54.0564 66.7126 54.0559 66.7121 54.0555L62.7692 50.1172C62.1476 49.4963 61.8053 48.6669 61.8053 47.7821C61.8053 46.8975 62.1476 46.0679 62.7689 45.4472ZM58.8499 57.2417C59.4721 56.6201 60.3038 56.2778 61.1915 56.2778C62.0787 56.2778 62.9101 56.6199 63.5324 57.241L65.7898 59.4957C66.4098 60.1133 66.7515 60.9407 66.7515 61.8255C66.7515 62.7103 66.4098 63.5375 65.7851 64.16C65.166 64.78 64.3363 65.1216 63.4489 65.1216C62.5611 65.1216 61.7315 64.7802 61.1079 64.1555L60.8253 63.874C60.8215 63.8702 60.8186 63.8661 60.815 63.8626C60.8107 63.8585 60.8063 63.855 60.802 63.851L58.8521 61.9086C57.5653 60.6189 57.5642 58.5256 58.8499 57.2417ZM104.707 82.8156C103.828 81.9361 102.403 81.9355 101.524 82.8136L99.5225 84.8129C97.6201 86.7152 94.1732 86.4757 90.8395 86.2444C87.2196 85.9928 83.4764 85.7332 81.0541 88.2201L72.7657 96.4984L52.0391 75.8021L59.374 68.4803C60.5864 69.2235 61.9853 69.6219 63.4491 69.6219C65.54 69.6219 67.5011 68.8112 68.9657 67.3439C70.4402 65.8755 71.2524 63.9157 71.2524 61.8253C71.2524 61.8058 71.251 61.7866 71.251 61.7672C71.2705 61.7674 71.2899 61.7685 71.3094 61.7685C73.3976 61.7685 75.3569 60.9604 76.8235 59.4955C78.298 58.0271 79.1102 56.0671 79.1102 53.9768C79.1102 53.9574 79.1088 53.9382 79.1088 53.9187C79.1285 53.9187 79.1482 53.9201 79.1681 53.9201C81.2556 53.9201 83.2161 53.1128 84.6925 51.6424C86.2253 50.1071 86.9834 48.0859 86.9689 46.069C86.989 46.069 87.0091 46.0703 87.0292 46.0703C89.1204 46.0703 91.081 45.2597 92.5479 43.7901C94.0179 42.3219 94.8276 40.3629 94.8276 38.2737C94.8276 36.8129 94.4303 35.4162 93.6896 34.2061L100.119 27.7798C100.598 27.3028 101.188 27.0034 101.808 26.8798C101.875 26.8726 101.941 26.8619 102.006 26.849C103 26.712 104.043 27.0183 104.802 27.7751C106.089 29.0641 106.089 31.1613 104.807 32.4456L102.849 34.3955C102.843 34.402 102.836 34.4078 102.829 34.4145L100.574 36.6659C99.6949 37.544 99.6941 38.9688 100.572 39.8481C101.451 40.7275 102.876 40.7282 103.755 39.8501L105.72 37.887C105.721 37.8865 105.721 37.8861 105.722 37.8856L106.019 37.5896C107.309 36.3111 109.4 36.3137 110.689 37.601C111.309 38.2185 111.651 39.0459 111.651 39.9307C111.651 40.8153 111.309 41.6427 110.684 42.2652L108.715 44.2384C108.714 44.2386 108.714 44.2388 108.714 44.2393L106.459 46.485C105.578 47.362 105.576 48.7869 106.453 49.6672C107.33 50.5478 108.754 50.5504 109.635 49.6737L111.9 47.4176C112.519 46.7974 113.349 46.456 114.236 46.456C115.124 46.456 115.954 46.7974 116.577 47.4221C117.198 48.0399 117.539 48.8673 117.539 49.7519C117.539 50.6365 117.198 51.4639 116.574 52.085L112.648 56.0123C111.769 56.8913 111.77 58.316 112.648 59.1945C113.088 59.6338 113.664 59.8532 114.239 59.8532C114.815 59.8532 115.391 59.6334 115.831 59.1939L117.755 57.2692C117.766 57.2587 117.777 57.2495 117.788 57.2386C118.408 56.6183 119.237 56.2769 120.125 56.2769C121.012 56.2769 121.842 56.6183 122.463 57.2408C123.749 58.5249 123.748 60.6185 122.464 61.905L120.507 63.859C120.507 63.8597 120.506 63.8603 120.505 63.861C120.504 63.8617 120.504 63.8626 120.503 63.8632L117.398 66.9643C116.519 67.8426 116.518 69.2673 117.396 70.1467C117.836 70.5867 118.412 70.8068 118.988 70.8068C119.564 70.8068 120.139 70.5873 120.579 70.1487L122.097 68.6318L129.376 75.9022L108.651 96.6018L101.226 89.1851C101.743 88.8522 102.239 88.4607 102.704 87.9957L104.705 85.9973C105.584 85.1197 105.585 83.6948 104.707 82.8156ZM142.485 85.6023L118.367 109.691C117.803 110.254 117.047 110.565 116.24 110.565C115.433 110.565 114.678 110.254 114.114 109.691L110.137 105.719C109.574 105.157 109.263 104.404 109.263 103.599C109.263 102.795 109.574 102.042 110.137 101.479L134.255 77.3901C134.82 76.8264 135.575 76.516 136.382 76.516C137.189 76.516 137.944 76.8264 138.51 77.3914L142.485 81.3554C143.048 81.9182 143.359 82.6721 143.359 83.4787C143.359 84.2856 143.048 85.0397 142.485 85.6023Z" fill="black"/>
<path d="M60.7783 13.5031C61.2176 13.9415 61.7927 14.1605 62.3678 14.1605C62.9443 14.1605 63.521 13.9402 63.9605 13.4998C64.8384 12.6201 64.837 11.1955 63.9573 10.3176L55.7577 2.13425C54.8782 1.25614 53.4534 1.25748 52.5755 2.13738C51.6976 3.01705 51.6989 4.44168 52.5786 5.31956L60.7783 13.5031Z" fill="black"/>
<path d="M118.949 14.1604C119.525 14.1604 120.1 13.941 120.54 13.5024L128.733 5.31881C129.612 4.4407 129.613 3.01584 128.735 2.13662C127.857 1.25718 126.432 1.25651 125.553 2.13483L117.359 10.3184C116.48 11.1965 116.479 12.6214 117.357 13.5006C117.797 13.9403 118.373 14.1604 118.949 14.1604Z" fill="black"/>
<path d="M47.6944 97.6571C46.8232 98.5432 46.8352 99.9681 47.7216 100.839L47.7281 100.846C48.1654 101.275 48.7331 101.489 49.3006 101.489C49.8831 101.489 50.4656 101.264 50.9069 100.815C51.7781 99.929 51.7627 98.501 50.8765 97.6298C49.9904 96.7586 48.5658 96.7709 47.6944 97.6571Z" fill="black"/>
<path d="M110.209 79.5743C110.551 79.5743 110.899 79.4964 111.225 79.3321C112.334 78.7724 112.78 77.4193 112.22 76.3097C111.661 75.2001 110.307 74.7541 109.198 75.3138L109.186 75.3201C108.076 75.8798 107.636 77.2298 108.196 78.3394C108.591 79.1232 109.385 79.5743 110.209 79.5743Z" fill="black"/>
</svg>
