<svg width="121" height="108" viewBox="0 0 121 108" fill="none" xmlns="http://www.w3.org/2000/svg">
<g filter="url(#filter0_f)">
<path d="M6.63672 11.4756C6.63672 8.71417 8.87529 6.47559 11.6367 6.47559H109.84C112.602 6.47559 114.84 8.71416 114.84 11.4756V96.7705C114.84 99.252 112.829 101.264 110.347 101.264H11.1297C8.6483 101.264 6.63672 99.252 6.63672 96.7705V11.4756Z" fill="#C4C4C4"/>
<path d="M109.84 5.47559H11.6367C8.32301 5.47559 5.63672 8.16189 5.63672 11.4756V96.7705C5.63672 99.8042 8.09602 102.264 11.1297 102.264H110.347C113.381 102.264 115.84 99.8042 115.84 96.7705V11.4756C115.84 8.16188 113.154 5.47559 109.84 5.47559Z" stroke="#3BB54A" stroke-width="2"/>
</g>
<path d="M6.63672 11.4756C6.63672 8.71417 8.87529 6.47559 11.6367 6.47559H109.84C112.602 6.47559 114.84 8.71416 114.84 11.4756V96.7705C114.84 99.252 112.829 101.264 110.347 101.264H11.1297C8.6483 101.264 6.63672 99.252 6.63672 96.7705V11.4756Z" fill="#C4C4C4"/>
<path d="M6.63672 10.9686C6.63672 8.48716 8.6483 6.47559 11.1297 6.47559H110.347C112.829 6.47559 114.84 8.48717 114.84 10.9686V41.9035H6.63672V10.9686Z" fill="#948989"/>
<path d="M35.5507 24.223H31.507V26.9609H36.2527V28.6528H29.4009V18.4313H36.2387V20.1372H31.507V22.5733H35.5507V24.223ZM40.3736 27.1575C40.7481 27.1575 41.0523 27.0545 41.2863 26.8486C41.5203 26.6427 41.642 26.3689 41.6513 26.0272H43.5538C43.5492 26.5421 43.4088 27.0148 43.1326 27.4453C42.8565 27.8712 42.4774 28.2035 41.9953 28.4422C41.518 28.6762 40.9891 28.7932 40.4087 28.7932C39.3229 28.7932 38.4665 28.4492 37.8393 27.7613C37.2122 27.0686 36.8986 26.1138 36.8986 24.897V24.7636C36.8986 23.5935 37.2098 22.6598 37.8323 21.9625C38.4548 21.2651 39.3089 20.9165 40.3947 20.9165C41.3448 20.9165 42.1053 21.1879 42.6763 21.7308C43.252 22.269 43.5445 22.9875 43.5538 23.886H41.6513C41.642 23.4929 41.5203 23.1747 41.2863 22.9313C41.0523 22.6832 40.7434 22.5592 40.3596 22.5592C39.8869 22.5592 39.5289 22.7324 39.2855 23.0787C39.0468 23.4204 38.9275 23.9773 38.9275 24.7495V24.9602C38.9275 25.7417 39.0468 26.3034 39.2855 26.645C39.5242 26.9867 39.8869 27.1575 40.3736 27.1575ZM44.3963 24.7846C44.3963 24.0311 44.5414 23.3595 44.8315 22.7698C45.1217 22.1801 45.5382 21.7238 46.0812 21.4009C46.6287 21.0779 47.2629 20.9165 47.9837 20.9165C49.0086 20.9165 49.844 21.23 50.4899 21.8572C51.1404 22.4843 51.5032 23.3361 51.578 24.4126L51.5921 24.9321C51.5921 26.0974 51.2668 27.0335 50.6163 27.7402C49.9657 28.4422 49.0929 28.7932 47.9977 28.7932C46.9025 28.7932 46.0273 28.4422 45.3721 27.7402C44.7216 27.0382 44.3963 26.0834 44.3963 24.8759V24.7846ZM46.4251 24.9321C46.4251 25.6528 46.5609 26.2051 46.8323 26.5889C47.1038 26.968 47.4922 27.1575 47.9977 27.1575C48.4891 27.1575 48.8729 26.9703 49.149 26.5959C49.4252 26.2168 49.5632 25.613 49.5632 24.7846C49.5632 24.0779 49.4252 23.5304 49.149 23.1419C48.8729 22.7534 48.4844 22.5592 47.9837 22.5592C47.4875 22.5592 47.1038 22.7534 46.8323 23.1419C46.5609 23.5257 46.4251 24.1224 46.4251 24.9321ZM48.3838 17.8697H50.5952L48.6506 20.0459H47.0008L48.3838 17.8697ZM54.9829 28.6528H52.947V17.8697H54.9829V28.6528ZM56.3448 24.7846C56.3448 24.0311 56.4899 23.3595 56.7801 22.7698C57.0703 22.1801 57.4868 21.7238 58.0297 21.4009C58.5773 21.0779 59.2114 20.9165 59.9322 20.9165C60.9572 20.9165 61.7926 21.23 62.4384 21.8572C63.089 22.4843 63.4517 23.3361 63.5266 24.4126L63.5406 24.9321C63.5406 26.0974 63.2154 27.0335 62.5648 27.7402C61.9143 28.4422 61.0414 28.7932 59.9462 28.7932C58.8511 28.7932 57.9759 28.4422 57.3206 27.7402C56.6701 27.0382 56.3448 26.0834 56.3448 24.8759V24.7846ZM58.3737 24.9321C58.3737 25.6528 58.5094 26.2051 58.7809 26.5889C59.0523 26.968 59.4408 27.1575 59.9462 27.1575C60.4377 27.1575 60.8214 26.9703 61.0976 26.5959C61.3737 26.2168 61.5118 25.613 61.5118 24.7846C61.5118 24.0779 61.3737 23.5304 61.0976 23.1419C60.8214 22.7534 60.433 22.5592 59.9322 22.5592C59.4361 22.5592 59.0523 22.7534 58.7809 23.1419C58.5094 23.5257 58.3737 24.1224 58.3737 24.9321ZM64.4954 24.7987C64.4954 23.6333 64.7715 22.6949 65.3238 21.9835C65.8807 21.2722 66.6296 20.9165 67.5703 20.9165C68.4034 20.9165 69.0516 21.202 69.5149 21.7729L69.5992 21.0569H71.4385V28.4001C71.4385 29.0647 71.2864 29.6427 70.9822 30.1341C70.6826 30.6255 70.2591 31 69.7115 31.2574C69.1639 31.5148 68.5227 31.6435 67.7879 31.6435C67.231 31.6435 66.6881 31.5312 66.1592 31.3065C65.6303 31.0865 65.2302 30.801 64.9587 30.45L65.8573 29.2145C66.3628 29.7808 66.9759 30.0639 67.6967 30.0639C68.2349 30.0639 68.6538 29.9188 68.9533 29.6287C69.2528 29.3432 69.4026 28.936 69.4026 28.4071V27.9999C68.9346 28.5288 68.3191 28.7932 67.5562 28.7932C66.6436 28.7932 65.9041 28.4375 65.3378 27.7262C64.7762 27.0101 64.4954 26.0623 64.4954 24.8829V24.7987ZM66.5243 24.9461C66.5243 25.6341 66.6623 26.1747 66.9385 26.5678C67.2146 26.9563 67.5937 27.1505 68.0757 27.1505C68.6935 27.1505 69.1358 26.9188 69.4026 26.4555V23.2612C69.1311 22.7979 68.6935 22.5662 68.0898 22.5662C67.603 22.5662 67.2193 22.7651 66.9385 23.163C66.6623 23.5608 66.5243 24.1552 66.5243 24.9461ZM75.1452 28.6528H73.1093V21.0569H75.1452V28.6528ZM72.99 19.0912C72.99 18.787 73.0906 18.5366 73.2918 18.34C73.4978 18.1434 73.7762 18.0452 74.1272 18.0452C74.4736 18.0452 74.7497 18.1434 74.9556 18.34C75.1616 18.5366 75.2645 18.787 75.2645 19.0912C75.2645 19.4001 75.1592 19.6528 74.9486 19.8494C74.7427 20.0459 74.4689 20.1442 74.1272 20.1442C73.7856 20.1442 73.5095 20.0459 73.2988 19.8494C73.0929 19.6528 72.99 19.4001 72.99 19.0912ZM79.9822 27.1575C80.3566 27.1575 80.6608 27.0545 80.8948 26.8486C81.1288 26.6427 81.2505 26.3689 81.2599 26.0272H83.1624C83.1577 26.5421 83.0173 27.0148 82.7412 27.4453C82.465 27.8712 82.0859 28.2035 81.6039 28.4422C81.1265 28.6762 80.5976 28.7932 80.0173 28.7932C78.9315 28.7932 78.075 28.4492 77.4478 27.7613C76.8207 27.0686 76.5071 26.1138 76.5071 24.897V24.7636C76.5071 23.5935 76.8184 22.6598 77.4408 21.9625C78.0633 21.2651 78.9174 20.9165 80.0032 20.9165C80.9533 20.9165 81.7138 21.1879 82.2848 21.7308C82.8605 22.269 83.153 22.9875 83.1624 23.886H81.2599C81.2505 23.4929 81.1288 23.1747 80.8948 22.9313C80.6608 22.6832 80.3519 22.5592 79.9681 22.5592C79.4954 22.5592 79.1374 22.7324 78.894 23.0787C78.6553 23.4204 78.536 23.9773 78.536 24.7495V24.9602C78.536 25.7417 78.6553 26.3034 78.894 26.645C79.1327 26.9867 79.4954 27.1575 79.9822 27.1575ZM84.0048 24.7846C84.0048 24.0311 84.1499 23.3595 84.4401 22.7698C84.7302 22.1801 85.1468 21.7238 85.6897 21.4009C86.2373 21.0779 86.8714 20.9165 87.5922 20.9165C88.6171 20.9165 89.4526 21.23 90.0984 21.8572C90.749 22.4843 91.1117 23.3361 91.1866 24.4126L91.2006 24.9321C91.2006 26.0974 90.8753 27.0335 90.2248 27.7402C89.5742 28.4422 88.7014 28.7932 87.6062 28.7932C86.5111 28.7932 85.6359 28.4422 84.9806 27.7402C84.3301 27.0382 84.0048 26.0834 84.0048 24.8759V24.7846ZM86.0337 24.9321C86.0337 25.6528 86.1694 26.2051 86.4408 26.5889C86.7123 26.968 87.1008 27.1575 87.6062 27.1575C88.0976 27.1575 88.4814 26.9703 88.7575 26.5959C89.0337 26.2168 89.1717 25.613 89.1717 24.7846C89.1717 24.0779 89.0337 23.5304 88.7575 23.1419C88.4814 22.7534 88.093 22.5592 87.5922 22.5592C87.0961 22.5592 86.7123 22.7534 86.4408 23.1419C86.1694 23.5257 86.0337 24.1224 86.0337 24.9321Z" fill="#FDFDFD"/>
<rect x="17.1465" y="52.8237" width="43.1477" height="5.4819" rx="2.74095" fill="#7A7A7A"/>
<rect x="17.1465" y="75.6309" width="43.1477" height="5.4819" rx="2.74095" fill="#7A7A7A"/>
<rect x="17.1465" y="60.2544" width="43.1477" height="5.4819" rx="2.74095" fill="#7A7A7A"/>
<rect x="17.1465" y="83.062" width="43.1477" height="5.4819" rx="2.74095" fill="#7A7A7A"/>
<rect x="75.3203" y="52.8237" width="25.431" height="12.9129" rx="4.49299" fill="#7A7A7A"/>
<rect x="75.3203" y="75.6309" width="25.431" height="12.9129" rx="4.49299" fill="#7A7A7A"/>
<defs>
<filter id="filter0_f" x="0.636719" y="0.475586" width="120.203" height="106.788" filterUnits="userSpaceOnUse" color-interpolation-filters="sRGB">
<feFlood flood-opacity="0" result="BackgroundImageFix"/>
<feBlend mode="normal" in="SourceGraphic" in2="BackgroundImageFix" result="shape"/>
<feGaussianBlur stdDeviation="2" result="effect1_foregroundBlur"/>
</filter>
</defs>
</svg>
