<svg width="228" height="228" viewBox="0 0 228 228" fill="none" xmlns="http://www.w3.org/2000/svg">
<path d="M93.0545 7.40332H82.4063H22.0667C14.2225 7.40332 7.86914 13.7567 7.86914 21.6009V64.1935C7.86914 72.0377 14.2225 78.3911 22.0667 78.3911H29.1655L54.0112 92.5887V78.3911H82.4063H93.0545C100.899 78.3911 107.252 72.0377 107.252 64.1935V21.6009C107.252 13.7567 100.899 7.40332 93.0545 7.40332Z" fill="#FF826E"/>
<path d="M220.836 42.8987V85.4914C220.836 93.3355 214.483 99.689 206.638 99.689H199.54L174.694 113.887V99.689H135.651C127.807 99.689 121.453 93.3355 121.453 85.4914V42.8987C121.453 35.0546 127.807 28.7012 135.651 28.7012H206.638C214.483 28.7012 220.836 35.0546 220.836 42.8987Z" fill="#B4DD7F"/>
<path d="M220.836 177.774V206.169C220.836 214.013 214.483 220.367 206.638 220.367H135.651C127.807 220.367 121.453 214.013 121.453 206.169V177.774C121.453 169.93 127.807 163.576 135.651 163.576H160.496V149.379L185.342 163.576H206.638C214.483 163.576 220.836 169.93 220.836 177.774Z" fill="#E6E9ED"/>
<path d="M135.648 177.774H164.044V206.17H135.648V177.774Z" fill="#FCD770"/>
<path d="M61.11 211.493C61.11 206.595 57.1347 202.619 52.2365 202.619H7.86914V199.07C7.86914 179.477 23.7704 163.576 43.363 163.576H54.0112H57.5606L66.0081 162.369C76.6563 160.843 86.5236 155.91 94.1193 148.314L125.602 116.831C127.484 114.95 130.039 113.885 132.701 113.885C135.47 113.885 137.99 115.021 139.8 116.831C141.61 118.641 142.746 121.161 142.746 123.93C142.746 126.592 141.681 129.147 139.8 131.028L84.9974 185.831C83.3292 187.499 82.4063 189.735 82.4063 192.113V220.366H52.2365C54.6856 220.366 56.9217 219.373 58.5189 217.775C60.1162 216.178 61.11 213.942 61.11 211.493Z" fill="#FCD770"/>
<path d="M52.2365 202.621C57.1347 202.621 61.11 206.596 61.11 211.495C61.11 213.944 60.1161 216.18 58.5189 217.777C56.9217 219.374 54.6856 220.368 52.2365 220.368H39.8136H16.7426C11.8445 220.368 7.86914 216.393 7.86914 211.495V202.621H52.2365Z" fill="#F0D0B4"/>
<path d="M54.0117 163.576C67.7337 163.576 78.8575 152.452 78.8575 138.73C78.8575 125.009 67.7337 113.885 54.0117 113.885C40.2898 113.885 29.166 125.009 29.166 138.73C29.166 152.452 40.2898 163.576 54.0117 163.576Z" fill="#F0D0B4"/>
<path d="M163.23 74.185C161.718 75.6969 159.267 75.6969 157.755 74.185L151.313 67.7438C149.928 66.3579 147.68 66.3579 146.295 67.7438C144.909 69.1297 144.909 71.3767 146.295 72.7627L157.755 84.2227C159.267 85.7346 161.718 85.7346 163.23 84.2227L199.535 47.9169C200.921 46.531 200.921 44.284 199.535 42.8981C198.149 41.5122 195.902 41.5122 194.517 42.8981L163.23 74.185Z" fill="black"/>
<path d="M32.7164 67.7448C34.1024 69.1307 36.3494 69.1307 37.7353 67.7448L54.8247 50.6554C56.3365 49.1436 58.7878 49.1436 60.2997 50.6554L77.3891 67.7448C78.775 69.1307 81.022 69.1307 82.4079 67.7448C83.7938 66.3589 83.7938 64.1119 82.4079 62.726L65.3185 45.6366C63.8066 44.1247 63.8066 41.6735 65.3185 40.1616L82.4079 23.0722C83.7938 21.6863 83.7938 19.4393 82.4079 18.0534C81.022 16.6674 78.775 16.6674 77.3891 18.0534L60.2997 35.1427C58.7878 36.6546 56.3365 36.6546 54.8246 35.1427L37.7353 18.0534C36.3494 16.6674 34.1024 16.6675 32.7164 18.0534C31.3305 19.4393 31.3305 21.6863 32.7164 23.0722L49.8058 40.1616C51.3177 41.6735 51.3177 44.1247 49.8058 45.6366L32.7164 62.726C31.3305 64.1119 31.3305 66.3589 32.7164 67.7448Z" fill="black"/>
<path d="M174.691 177.775C174.691 175.815 176.281 174.226 178.241 174.226H206.636C208.596 174.226 210.185 175.815 210.185 177.775C210.185 179.735 208.596 181.324 206.636 181.324H178.241C176.281 181.324 174.691 179.735 174.691 177.775Z" fill="black"/>
<path d="M174.691 191.972C174.691 190.012 176.281 188.423 178.241 188.423H206.636C208.596 188.423 210.185 190.012 210.185 191.972C210.185 193.933 208.596 195.522 206.636 195.522H178.241C176.281 195.522 174.691 193.933 174.691 191.972Z" fill="black"/>
<path d="M174.691 206.17C174.691 204.21 176.281 202.621 178.241 202.621H206.636C208.596 202.621 210.185 204.21 210.185 206.17C210.185 208.131 208.596 209.72 206.636 209.72H178.241C176.281 209.72 174.691 208.131 174.691 206.17Z" fill="black"/>
</svg>
